<?xml version="1.0" standalone="no"?>
<!DOCTYPE svg PUBLIC "-//W3C//DTD SVG 1.1//EN" "http://www.w3.org/Graphics/SVG/1.1/DTD/svg11.dtd" >
<svg xmlns="http://www.w3.org/2000/svg" xmlns:xlink="http://www.w3.org/1999/xlink" version="1.1">
<metadata></metadata>
<defs>
<font id="laylantiaregular" horiz-adv-x="1013" >
<font-face units-per-em="2048" ascent="1638" descent="-410" />
<missing-glyph horiz-adv-x="1040" />
<glyph unicode="&#xd;" horiz-adv-x="1040" />
<glyph horiz-adv-x="0" />
<glyph horiz-adv-x="0" />
<glyph unicode=" "  horiz-adv-x="1040" />
<glyph unicode="&#x09;" horiz-adv-x="1040" />
<glyph unicode="&#xa0;" horiz-adv-x="1040" />
<glyph unicode="!" horiz-adv-x="1026" d="M41 43q0 38 -28 66t-66 28q-39 0 -66.5 -27.5t-27.5 -66.5q0 -40 27 -67t67 -27q39 0 66.5 27.5t27.5 66.5zM578 1343q0 -7 -2 -22t-18.5 -70t-45 -121t-90.5 -179.5t-146 -241.5q-132 -202 -190.5 -325t-51.5 -145l7 -22l756 1108z" />
<glyph unicode="&#x22;" horiz-adv-x="610" d="M451 1303q0 -15 -11 -33q-8 -17 -16 -27q-19 -25 -47 -49l-31 -31q-86 -82 -194 -112v34q4 0 10.5 1.5t27 9t41 19t49 35t54.5 54.5q-40 6 -64.5 39.5t-17.5 75.5q5 29 26 51.5t50 28.5q49 10 86 -19.5t37 -76.5zM702 1290q0 -13 -10 -33q-1 -2 -4 -7t-6 -9l-6 -8 q-19 -25 -47 -49l-31 -31q-93 -89 -195 -113v35q4 0 10.5 1.5t27 9t41.5 19t49.5 35t54.5 54.5q-40 6 -64.5 39.5t-17.5 75.5q5 29 26 51.5t50 28.5q49 10 85.5 -20.5t36.5 -78.5z" />
<glyph unicode="#" horiz-adv-x="1026" d="M-43 -37h76l409 1409h-104zM254 -37h78l407 1407h-102zM8 848l770 -2l10 65l-763 -10zM-90 436l768 -2l10 68l-764 -13z" />
<glyph unicode="$" horiz-adv-x="1441" d="M1237 1251q-1 66 -48.5 106.5t-120.5 48.5t-167.5 -20t-181.5 -90q-51 -39 -76 -80.5t-24.5 -85t15.5 -86.5t51 -94.5t75.5 -100.5t93.5 -111q19 -22 29 -33q74 -83 98.5 -169t6.5 -159t-68.5 -143t-116 -124t-146.5 -100q-89 -51 -210 -67t-223.5 -1.5t-181.5 42.5 t-99 59q-17 27 -20 50.5t5.5 38t19 25t20.5 15.5l9 4q1 -4 4.5 -12t21.5 -30t44 -42.5t78 -45t119 -42.5q103 -24 189.5 -8t160 69t125.5 121t86 148q17 35 14.5 77.5t-15.5 80.5t-38 83.5t-53.5 85.5t-62 86.5t-63 87.5t-57.5 88.5t-45 88.5q-37 88 -2 170t113.5 145.5 t194.5 103.5t241 44q75 0 135 -21.5t94.5 -55t54.5 -76t22 -83.5t-9.5 -77t-34.5 -58q-62 -49 -121 -47t-93.5 46t-8.5 95q15 29 38 44.5t44.5 18t40.5 1t31 -5.5zM1182 1638q22 11 42 -1t19 -35q-2 -28 -29 -64q-68 -81 -112 -152q-314 -507 -838 -1564h-135 q163 246 944 1708q43 80 109 108z" />
<glyph unicode="%" horiz-adv-x="1320" d="M700 1305q2 -43 -9.5 -97.5t-23.5 -87.5l-12 -33q-88 -186 -218 -255q-100 -53 -176 -15q-72 36 -77 133q-3 83 49 187q169 282 332 290q55 2 94.5 -33.5t40.5 -88.5zM645 1176q3 14 7 36.5t1.5 70.5t-22.5 71q-26 26 -64 14q-40 -18 -85 -54.5t-89.5 -87.5t-80 -120.5 t-48.5 -142.5q-19 -110 44 -126q58 -14 147 56q110 88 170 230q11 26 20 53zM1061 504q2 -44 -9.5 -98t-23.5 -86l-12 -33q-87 -187 -218 -256q-99 -53 -174 -15q-73 36 -77 133q-3 83 49 187q169 283 332 291q54 2 93 -33.5t40 -89.5zM1008 375q3 14 6.5 36.5t0 70.5 t-23.5 71q-22 26 -63 14q-40 -18 -84.5 -54.5t-89 -87.5t-79.5 -120.5t-48 -142.5q-20 -110 42 -126q58 -14 147 56q110 88 172 230q11 26 20 53zM774 903q-125 -148 -364 -475.5t-293 -460.5h-80q52 142 306.5 495t377.5 494q129 147 219 270.5t123 188.5h84 q-4 -11 -44.5 -74t-133 -189.5t-195.5 -248.5z" />
<glyph unicode="&#x26;" horiz-adv-x="1634" d="M276 14q160 0 302 111q48 34 96 98l12 17l16 -15q81 -72 168 -137q80 -59 183 -59q136 0 229 96q11 11 27 35l-11 10q-65 -82 -155 -82q-66 0 -139 51q-73 52 -224 203l-10 12l8 13q143 198 223 352h-36q-83 -161 -205 -324l-12 -18l-17 16q-152 165 -289 334l-12 16 l16 11q217 170 269 336q28 123 -31 219q-60 99 -172 123q-35 6 -74 6h-24q-131 -11 -197 -86.5t-72 -221.5q-9 -177 95 -350q5 -9 12 -19.5t16 -24.5t15 -23l10 -17l-17 -10l-20 -10l-3 -2q-26 -15 -53 -32.5t-85 -65.5t-95.5 -95.5t-59.5 -115.5t-3 -132 q31 -100 117.5 -159.5t201.5 -59.5zM295 649l22 15l11 -17q132 -189 315 -364l12 -15l-12 -12q-116 -119 -209 -160q-56 -24 -110 -24q-78 0 -140.5 49t-85.5 127q-28 96 17 204.5t180 196.5zM426 1382q56 0 102 -29t72 -81q33 -65 18 -178q-21 -148 -198 -303l-17 -13 l-12 17q-69 89 -100 149q-20 42 -33.5 87t-19 101t7.5 103q15 66 64.5 106.5t115.5 40.5z" />
<glyph unicode="'" horiz-adv-x="346" d="M367 1290q0 -8 -9 -35q-14 -21 -18 -26q-12 -16 -45 -49q-6 -5 -17 -15t-16 -14q-85 -89 -196 -115v35q4 0 10.5 1.5t27 8.5t41 18.5t50 35.5t55.5 55q-41 8 -66 41.5t-18 75.5q4 30 26 53t52 29q49 10 86 -20.5t37 -78.5z" />
<glyph unicode="(" horiz-adv-x="1230" d="M1145 1505q-199 -220 -369.5 -432t-284 -374.5t-203.5 -308t-140.5 -247t-84 -176t-44.5 -109.5l-11 -36h-45q26 170 102 355.5t176.5 346t215.5 314.5t225 274.5t199.5 212.5t144.5 141l55 50z" />
<glyph unicode=")" horiz-adv-x="1234" d="M-10 -184q199 221 369.5 433t283.5 375t203 308.5t140 247t83 176t44 110.5l11 35h47q-21 -134 -72.5 -278t-121 -273.5t-154 -259t-173 -240.5t-175 -211.5t-163 -178.5t-135 -135.5t-92.5 -87.5l-34 -30z" />
<glyph unicode="*" horiz-adv-x="1024" d="M846 1010v2q-33 0 -49 22q-10 13 -23 94q-9 69 -45 125q-38 -54 -47 -125q-9 -77 -20 -90q-17 -26 -54 -26q-34 0 -67 29.5t-33 62.5q0 16 10 33q19 19 84 51q62 27 105 82q-45 10 -80 10q-18 0 -54 -4q-53 -12 -77 -12q-3 0 -8 1t-7 1q-21 6 -34 24.5t-13 42.5 q0 26 11.5 50.5t31.5 37.5q16 13 35 13q15 0 33.5 -12.5t56.5 -53.5q56 -53 113 -74q-3 71 -37 129q-37 67 -37 84q0 33 23.5 52.5t62.5 19.5q36 0 61 -18t25 -48q0 -21 -37 -88q-31 -64 -37 -131q61 22 115 76q50 56 68 62q8 2 20 2q25 0 45 -17t29 -47q6 -18 6 -35 q0 -56 -41 -65q-4 -2 -20 -2q-29 0 -76 8q-18 4 -56 4q-45 0 -79 -10q43 -55 104 -82q72 -37 80 -47q12 -18 12 -39q0 -34 -32.5 -63t-67.5 -29z" />
<glyph unicode="+" d="M664 276h-142v371h-350v139h350v369l2 2h140v-371h348h2v-139h-350v-371z" />
<glyph unicode="," horiz-adv-x="612" d="M512 104q0 -12 -10 -32q-14 -21 -17 -25q-23 -30 -45 -49q-25 -25 -30 -29q-85 -85 -193 -112v34q4 0 10 1.5t26 8.5t40 18.5t48 34.5t54 54q-39 6 -63 39.5t-17 75.5q5 29 26 51.5t50 28.5q47 9 84 -22t37 -77z" />
<glyph unicode="-" horiz-adv-x="671" d="M631 410h-359q-39 0 -39 26v84q0 29 41 29h355q43 0 43 -29v-84q0 -26 -41 -26z" />
<glyph unicode="." horiz-adv-x="614" d="M541 96q0 40 -28.5 69.5t-68.5 29.5q-39 0 -67.5 -29.5t-28.5 -69.5t28 -68t68 -28t68.5 28t28.5 68z" />
<glyph unicode="/" horiz-adv-x="813" d="M104 -88h-79l542 1485h80z" />
<glyph unicode="0" horiz-adv-x="1015" d="M932 1401q95 -59 116.5 -204t-33 -338.5t-173.5 -387.5q-60 -97 -129 -182.5t-139.5 -150t-143 -111t-139 -69.5t-127.5 -21.5t-109 30.5q-95 59 -116.5 204t33 338.5t173.5 387.5q60 97 129 182.5t139.5 150t143 111t139 69.5t127.5 21.5t109 -30.5zM731 557 q148 273 184 503t-59 281q-62 33 -163 -26.5t-213.5 -195t-209.5 -314.5q-147 -276 -183.5 -504.5t58.5 -280.5t266.5 105.5t319.5 431.5z" />
<glyph unicode="1" horiz-adv-x="780" d="M770 1341q27 29 55.5 44.5t49.5 17.5t38 -0.5t26 -6.5l9 -5q-76 -137 -262.5 -488t-335.5 -633l-149 -282h-193q69 94 252.5 388t331.5 542l149 247q-68 -25 -175.5 -100t-181.5 -137l-73 -62l-55 31q135 96 281 224.5t233 219.5z" />
<glyph unicode="2" horiz-adv-x="1157" d="M352 182q76 -53 148 -82t127 -35.5t106 3.5t87 28.5t68 46t50 49.5t33 46h61q-9 -14 -24.5 -36.5t-61.5 -79.5t-90.5 -100t-102.5 -76.5t-106 -29.5t-103 26.5t-100.5 52.5t-83.5 59t-60 49l-21 20q-77 -36 -119.5 -85.5t-55.5 -88.5h-98q25 72 92.5 132.5t227.5 168.5 q62 42 177.5 148t245 244.5t233 279t142 251t-29.5 160.5q-50 32 -101.5 28t-102 -37.5t-96 -80.5t-84.5 -101t-67.5 -99.5t-44.5 -76.5l-16 -30l-52 18q20 62 65 137t109.5 149.5t142 128t162 72t169.5 -17.5q84 -46 110.5 -113t-3 -153t-95 -180.5t-172.5 -210.5 q-121 -131 -287.5 -277t-272.5 -227z" />
<glyph unicode="3" horiz-adv-x="1179" d="M1085 1440q58 -17 92.5 -65.5t34 -105t-33.5 -110.5q-41 -61 -106 -122.5t-129 -105.5t-122.5 -79.5t-94.5 -53.5l-36 -18q39 1 79.5 0t79.5 -16.5t69 -40t47.5 -70.5t15.5 -108q-2 -82 -42.5 -173t-112 -175t-184 -151.5t-245.5 -96.5q-276 -58 -368 57l34 35 q103 -71 228 -42.5t240.5 113t201 187t109.5 178.5q28 87 -8 156q-30 56 -89.5 80t-123.5 10q-83 -16 -129 -13t-62 15l-16 12q87 24 190 75.5t195 116.5t163 138t93.5 139.5t-13.5 120.5q-26 35 -66 42.5t-83 -8.5t-89 -43.5t-86 -62t-72.5 -64.5t-51.5 -51l-19 -20l-32 37 q146 176 290 245t252 38z" />
<glyph unicode="4" horiz-adv-x="999" d="M868 836h123q-101 -176 -178 -336l102 4l-16 -68h-119q-51 -109 -96.5 -217.5t-65.5 -162.5l-20 -54q-38 -19 -94.5 -26.5t-93.5 -5.5l-37 3q102 123 289 463h-668q199 196 344.5 354t207 237.5t122.5 159t100 122.5q39 44 85.5 71.5t84.5 36t70.5 11t50.5 -1.5l18 -3 q4 -37 -93.5 -147.5t-240 -242t-285 -257.5t-242.5 -210l-101 -85l579 17z" />
<glyph unicode="5" horiz-adv-x="1222" d="M1303 1419q3 -34 -11 -65q-19 -45 -61 -72t-92 -27h-398l-305 -528q5 4 15.5 11.5t47 26.5t77.5 34t107 27.5t136 13.5q85 0 149.5 -55.5t63.5 -135.5v-22q-15 -192 -151 -344q-69 -79 -145.5 -141t-139.5 -98.5t-135.5 -61t-117.5 -35t-102 -13.5t-72.5 -2.5t-45.5 2.5 q-31 2 -58 15t-38 25l-11 12q317 -39 565 141q164 118 249 292q72 147 51 250q-11 47 -41 72q-48 39 -111.5 44t-120 -15.5t-106 -46.5t-78.5 -49l-29 -23l-78 21l410 680q33 -2 85 -4.5t166.5 -6t174.5 -2.5q37 1 66.5 9t44.5 20t24.5 23.5t11.5 19.5z" />
<glyph unicode="6" horiz-adv-x="1024" d="M911 1468v-98q-148 -91 -282.5 -213t-230.5 -242t-174 -246.5t-124.5 -229t-70.5 -187.5q-49 -163 73 -229q107 -52 228 10q75 41 135 104.5t96.5 127.5t63 139t38 129t17.5 108q0 9 4 29q3 22 -10.5 38.5t-42.5 16.5q-6 0 -19 -1t-18 -1q-59 -10 -113 -39.5t-93.5 -68 t-73.5 -82.5t-56.5 -86t-39 -76t-23.5 -55l-7 -21l-22 31q10 119 135 270q114 138 244 209q150 82 225 15q25 -22 39 -62q21 -54 16.5 -119.5t-22.5 -137t-56.5 -144t-85 -139.5t-107.5 -124t-124.5 -97t-136 -59t-141.5 -10q-140 19 -203 106t-47.5 216t99 290.5 t226.5 327.5q107 125 217 232.5t190.5 172t145 111.5t98.5 66z" />
<glyph unicode="7" horiz-adv-x="1253" d="M788 1339q83 47 181 47h530l-92 -98q-179 -176 -472 -499t-496 -558l-203 -235h-209l1216 1231h-502l-149 -133l-41 -7l141 170q37 45 96 82z" />
<glyph unicode="8" horiz-adv-x="1267" d="M340 760q-146 -96 -251.5 -201t-156.5 -200t-58.5 -178t37 -143.5t134.5 -88.5q153 -49 317 22q63 26 112.5 54.5t84.5 62t59.5 66.5t36 75.5t16 81.5t-3.5 92.5t-18.5 100.5t-33.5 114t-44.5 123.5t-54.5 137.5q-87 212 17 364q68 99 189 135q107 33 179 -4 q78 -41 55 -142q-2 -6 -4 -13q-27 -91 -69.5 -175t-84.5 -139t-80 -96.5t-62 -60.5l-23 -19l31 -31q236 180 329 369q80 163 20 263q-49 84 -184 97q-188 15 -342 -110q-57 -47 -89.5 -96.5t-40.5 -103t-3 -105t25.5 -117.5t42.5 -126t49.5 -145.5t44.5 -160.5 q46 -202 -75 -344q-85 -99 -214 -129q-119 -28 -193 21q-53 36 -59 104q-6 76 29.5 162.5t90.5 156t110.5 128t94.5 90.5l40 32v76z" />
<glyph unicode="9" horiz-adv-x="1140" d="M1053 1157q6 -126 -52 -264q-45 -105 -125 -215.5t-171.5 -202.5t-191.5 -179t-191.5 -152.5t-165 -115.5t-116.5 -76l-44 -26l-25 97q349 135 611 465q190 239 277 500q67 205 36 308q-15 48 -51 60q-50 16 -126 -4.5t-156.5 -66.5t-158.5 -117t-134.5 -149t-81 -169 t-1.5 -172q37 -129 169 -85q106 36 224 160q106 111 133 198q0 3 1 5l45 13v-4q-18 -85 -74 -160q-75 -96 -163 -165.5t-171.5 -100.5t-154 -5.5t-105.5 113.5q-21 62 -14 133.5t46 147.5t93 148.5t127 137.5t148 114t156 77.5t151 28.5q72 0 124 -25.5t78.5 -69t38.5 -87.5 t15 -95z" />
<glyph unicode=":" horiz-adv-x="616" d="M711 520q0 40 -28.5 68t-68.5 28t-68 -28t-28 -68t28 -69t68 -29t68.5 28.5t28.5 69.5zM500 94q0 40 -28.5 68t-68.5 28t-68 -28t-28 -68t28 -68t68 -28t68.5 28t28.5 68z" />
<glyph unicode=";" horiz-adv-x="614" d="M627 500q0 39 -29.5 67.5t-69.5 28.5t-68 -28t-28 -68t28.5 -69.5t67.5 -29.5q40 0 69 29t30 70zM457 86q0 -15 -11 -37q-5 -9 -18 -26q-26 -34 -49 -54q-5 -5 -16.5 -15t-16.5 -15q-96 -92 -207 -121v37q4 0 11 1.5t28.5 9.5t43.5 20.5t52.5 37.5t57.5 58 q-42 6 -68 41.5t-20 80.5q6 31 29 55.5t55 30.5q51 10 90 -22t39 -82z" />
<glyph unicode="&#x3c;" d="M1014 193l-842 481v84l842 483v-168l-627 -358l627 -355v-167z" />
<glyph unicode="=" d="M1014 492h-842v139h842v-139zM1014 803h-842v139h842v-139z" />
<glyph unicode="&#x3e;" d="M172 193v167l627 355l-627 358v168l842 -483v-84z" />
<glyph unicode="?" horiz-adv-x="815" d="M182 76q0 36 -26 62t-62 26t-62 -26t-26 -62q0 -37 25.5 -62.5t62.5 -25.5t62.5 25.5t25.5 62.5zM256 1090q-36 27 45 90q30 25 66 42t66 23.5t56 9t41 1.5l15 -1q97 -17 99 -96q4 -111 -180 -290q-10 -9 -20 -19q-67 -64 -124.5 -137.5t-92 -133t-59 -109.5t-34.5 -78 l-9 -27l61 -21q18 110 136 266.5t292 311.5q73 65 109.5 137t32.5 131t-48 102t-122 54q-69 12 -144 -15q-55 -18 -100 -43t-74 -52.5t-49 -57t-27 -57.5t-5 -53.5t13.5 -45t30.5 -31.5q24 -15 54 -12q34 2 62 15t43.5 32t23 39t4 37t-16.5 26q-16 13 -37.5 6.5t-37 -16.5 t-29.5 -24q-8 -8 -20 -9t-21 5z" />
<glyph unicode="@" horiz-adv-x="1654" d="M911 195q-55 -8 -94 -0.5t-63.5 28t-38.5 47t-20 54.5t-7 51.5t0 38.5l2 16q-23 -31 -54.5 -68t-78.5 -83t-95.5 -70t-82.5 -10q-27 11 -47 34t-29 48t-14.5 48.5t-6.5 38.5l-1 15q6 100 38.5 187.5t75.5 145.5t100 107.5t99 75t86 45.5q77 32 135 27q102 -5 141 -68 q10 -19 8.5 -35.5t-8.5 -27.5l-6 -11q-70 64 -139 68t-138.5 -45.5t-152.5 -155.5q-52 -76 -85.5 -148.5t-44.5 -124.5t-10.5 -92t10.5 -60t24 -21q49 0 94.5 44.5t157.5 192.5q53 72 94 144v-2l2 4q0 1 1 2t1 2l78 137q38 14 80 15t65 -5l23 -6q-33 -30 -80 -99t-87.5 -150 t-57.5 -154t10 -109q16 -20 45 -25t67 4.5t81 30t87.5 54.5t86 75t78 94t60.5 109q44 104 46 207.5t-38 193t-140.5 153t-249.5 81.5q-120 14 -235.5 -10.5t-208.5 -76t-176 -125t-142.5 -154t-102.5 -166.5q-53 -104 -64 -217.5t19.5 -219.5t113.5 -195.5t210 -139.5 q71 -28 152 -35.5t153.5 2.5t143.5 28.5t127.5 43t100 46t67.5 36.5l24 14l43 -31q-110 -73 -334 -149q-205 -64 -383 -29q-193 35 -329 157t-179 314q-38 169 45.5 365t256 353.5t378.5 219.5q124 37 250 38.5t231.5 -31.5t188.5 -90t129.5 -141.5t46.5 -181.5 q-2 -147 -80.5 -296.5t-201.5 -252.5t-251 -124z" />
<glyph unicode="A" horiz-adv-x="1427" d="M-76 113q-55 77 -52 194.5t49.5 249.5t137 274t209.5 269q-19 113 80 270q-6 -13 -14.5 -34.5t-19 -80.5t-1.5 -108q170 170 372 281.5t415 138.5q56 9 112 0q89 -16 153 -67.5t87 -133.5q42 -142 -82 -276q-63 -70 -205.5 -123t-299.5 -74t-308.5 1t-226.5 91 q-111 -130 -213 -297q-153 -252 -143 -431q7 -132 101 -173q114 -48 299 59q184 107 388 346q226 263 371 424l-13 -26q-25 -57 -55 -121t-66.5 -141.5t-56.5 -120.5q-100 -214 -88 -354q14 -124 98 -122q80 2 182 105q63 64 109 143q-3 -8 -9.5 -21t-29 -51t-46.5 -71.5 t-62.5 -72.5t-77.5 -64q-46 -30 -99 -32t-96 19.5t-73 65t-33 98.5q-3 48 7 101.5t21 82.5l11 29q-11 -13 -31.5 -34.5t-82 -78.5t-123 -103t-145.5 -89.5t-158.5 -57t-153.5 13t-138 102.5zM936 1458q-298 -128 -563 -424q115 -115 436 -84q292 27 457 165q112 93 122 198 q9 96 -73 150q-67 44 -180 42q-104 -3 -199 -47z" />
<glyph unicode="B" horiz-adv-x="1943" d="M297 748q-272 -50 -375 151q-24 47 -25 98.5t17.5 99t47 92.5t66.5 85.5t74 71.5t72 55q43 28 111.5 55.5t172 52t221.5 38t269.5 10.5t306.5 -27q24 -4 68 -17q34 27 65.5 44.5t46.5 21.5l15 4q-52 -38 -88 -80q128 -34 216.5 -72t138 -78t74 -85t23 -93t-13.5 -102 q-13 -54 -64 -100t-114 -72.5t-124 -46t-102 -26.5l-42 -7q49 -6 102.5 -27t106.5 -55.5t93.5 -88.5t53.5 -118q13 -69 -12 -147t-81.5 -150t-155.5 -127t-220 -73q-255 -38 -657 94q-7 -6 -47 -41q-71 -59 -149.5 -93.5t-149 -42.5t-134.5 7t-109.5 49.5t-71.5 91 t-23 127.5q3 72 26.5 137t60.5 113t71 80.5t71 58.5q72 48 139 62q53 12 95.5 7t74 -22t52.5 -44t30.5 -59t8 -66.5t-14.5 -67.5q-15 -42 -47.5 -75t-70.5 -48t-75.5 -17t-66.5 17t-39 55q-8 31 -3.5 56t17 44t26 31.5t23.5 18.5l11 6q-18 -13 -35 -47.5t-14.5 -76 t39.5 -62.5q31 -17 61 -11q74 9 125.5 80.5t36.5 139.5q-10 57 -74 84q-70 27 -149 4q-55 -18 -105 -54t-82 -75t-56.5 -76t-35.5 -60l-10 -24q-15 -27 -25.5 -64.5t-9.5 -85.5t18 -89.5t65.5 -74.5t123.5 -42q77 -10 153.5 19.5t140 86t123 137t105 167.5t82.5 183 q83 216 157 355.5t214 363.5q58 92 131 172q-265 47 -473 29.5t-361 -72t-253 -132.5t-148 -151t-47 -130q3 -136 85 -193t216 -14q39 13 74.5 40t58 57.5t39 58.5t23.5 47l7 18q17 -91 -43 -173.5t-149 -100.5zM1319 1454h-2q-70 -85 -133.5 -203t-99 -211t-71.5 -188.5 t-50 -124.5q-10 -21 -43 -98.5t-60 -133t-83.5 -140.5t-125.5 -158l-35 -35q166 -56 336 -70q126 -12 244 18t201 88.5t132.5 138.5t49.5 165q0 181 -324 274q-106 27 -190 107l-2 2q128 -25 244.5 -7.5t205.5 61t142.5 111.5t54.5 144q1 58 -39.5 106t-98 75.5t-115 46.5 t-97.5 26z" />
<glyph unicode="C" horiz-adv-x="1542" d="M678 -59q-113 2 -206 28t-155.5 67t-110 98t-74.5 114.5t-42.5 121.5t-19.5 115.5t-2 100.5q5 104 62.5 261t156.5 302q-3 9 -8 39q-4 71 9 132.5t36 102.5t52 73.5t58.5 51t54.5 31t41 16.5l15 4q-65 -33 -119 -94q-95 -120 -82 -276q64 80 137 143.5t161.5 113.5 t194.5 74t220 17q120 -7 214 -46.5t150 -99.5t86 -135t29 -153.5t-28 -154.5t-77 -137.5t-127 -103t-169 -51.5q-536 -58 -801 324q-104 -166 -146.5 -336t-5.5 -307q18 -65 46 -118.5t61 -90t70.5 -65t74.5 -44.5t72.5 -27t66 -15t54 -5.5t36.5 -0.5l13 1q99 -1 189 20.5 t154 56.5t118 77t88.5 85t59 78t34.5 57l10 22q-2 -10 -7 -27t-27 -66.5t-50.5 -94t-81.5 -99t-117 -93t-160.5 -64t-207.5 -23.5zM971 1497q-160 -22 -315.5 -134t-276.5 -278q1 -2 3 -5t3 -5q55 -121 163 -200t231.5 -105t255 -3t235.5 95q79 53 122 128t47.5 150t-26 147 t-88.5 124t-151 77t-203 9z" />
<glyph unicode="D" horiz-adv-x="1929" d="M1825 700q9 -104 -15.5 -203.5t-79.5 -183t-134 -150.5t-185.5 -106.5t-227 -51.5t-265.5 14.5t-295 91.5q-85 -66 -177.5 -99t-171.5 -28t-143 36.5t-99.5 95t-31.5 146.5q3 71 26.5 135.5t60.5 112.5t71 80.5t71 58.5q62 45 140 64q53 11 95.5 6t74 -22t52 -44t30 -59 t8 -67t-14.5 -68q-15 -42 -47.5 -74.5t-70.5 -47.5t-75.5 -17t-66.5 16.5t-39 54.5q-8 31 -3.5 56t17 44t26 31.5t23.5 18.5l11 6q-12 -8 -25.5 -31.5t-21.5 -52t0.5 -58t36.5 -45.5q29 -16 61 -10q74 9 126 80.5t38 138.5q-13 57 -76 84q-70 27 -149 4q-55 -18 -105 -54 t-82 -75t-56.5 -75.5t-35.5 -60.5l-10 -23q-15 -27 -25.5 -65t-9.5 -86t18 -89.5t65.5 -74.5t123.5 -42q77 -10 153.5 20t140 86.5t123 137t105 168t82.5 184.5q86 218 161 360.5t210 356.5q1 2 4.5 8t5.5 8q-374 136 -611 111t-350.5 -118t-66.5 -173q22 -37 71 -45.5 t103.5 6t106 34.5t84.5 38l34 18q-4 -4 -12.5 -10.5t-34 -25t-51.5 -34t-64 -32t-73.5 -25.5t-76.5 -8t-77 15q-63 24 -79 88.5t20 119.5q34 57 105 102.5t177.5 73.5t232.5 33t282 -24t315 -92q41 57 84 101.5t74.5 66t57 35.5t38.5 17l14 3q-114 -83 -217 -246q2 0 10 -4 q9 -4 25 -12.5t62.5 -38.5t89.5 -65t97 -93.5t95 -122t73 -152t40 -182.5zM666 145q127 -55 259 -73t246.5 0t215.5 68t172 123t110 172.5t35 211.5q-4 97 -28 185t-58.5 151.5t-75.5 118t-81.5 89t-73.5 59.5t-53 36l-21 10q-8 5 -19 9q-71 -129 -147.5 -330t-83.5 -215 q-11 -22 -37.5 -87.5t-52.5 -118.5t-67.5 -124.5t-102.5 -144.5t-137 -140z" />
<glyph unicode="E" horiz-adv-x="1277" d="M420 43q-76 60 -103 152q-40 132 22.5 272t215.5 249.5t358 147.5q-9 6 -23 17.5t-44.5 49.5t-46.5 79t-12 102.5t42 122.5q3 3 8.5 10.5t11.5 15t11 13.5q79 95 201 164q200 112 405 104q11 0 35 -4q4 0 8 -2q19 -3 35 -14q29 -19 35 -56q16 -89 -135 -194 q5 4 12.5 10.5t26.5 27t33 41t25 50t9 55.5q-3 35 -37 49q-26 12 -70.5 7t-94.5 -19t-108 -43t-111 -64.5t-103.5 -84t-85.5 -101.5q-52 -77 -49 -164q0 -59 30.5 -107.5t102.5 -66.5q-7 -1 -20 -3.5t-52 -13.5t-76.5 -25.5t-89 -41.5t-95 -60t-88 -82.5t-75.5 -107.5 q-51 -95 -66 -190t4.5 -167.5t72 -121t129.5 -55.5q-26 150 6 293q18 88 63 161.5t102.5 119t120.5 71.5t121.5 25t100.5 -27q43 -27 63 -82.5t9.5 -126.5t-47 -144.5t-115 -144.5t-185.5 -119q-94 -45 -213 -53q10 -108 56 -196q-49 73 -76 196q-150 -4 -254 76zM985 594 q-113 -59 -207 -236t-86 -366q25 0 39 2q113 13 223.5 85t183.5 174.5t85 203.5q5 38 -9 74t-43 61q-73 61 -186 2z" />
<glyph unicode="F" horiz-adv-x="1226" d="M784 897v4v-4zM55 780q-96 50 -139 149t-29 208q5 37 24.5 80t53.5 92.5t87 92.5t120.5 79.5t159.5 54t197.5 16.5t242 -34t285.5 -97q60 -26 166 -67q54 62 107 100t80 46l26 7q-89 -67 -166 -170q257 -72 395 -57q51 6 77.5 20t29 30.5t-8 34.5t-27.5 32t-34 22 q4 0 10.5 -1.5t23 -8.5t29 -17.5t22.5 -30.5t9 -46q-1 -27 -22 -45.5t-65 -27t-108 -6.5t-155 18t-201 46q-120 -176 -239 -501q233 -13 364 106q-4 -8 -12 -21t-39 -44t-69.5 -53t-107 -35t-147.5 -2h-8q-15 -43 -39 -99q-12 -25 -40 -92t-55.5 -123t-71.5 -130t-110 -150 t-149 -144q-86 -70 -180 -106t-175.5 -32.5t-147 35t-102 96t-32.5 149.5q3 71 26.5 135.5t61 112.5t71.5 80.5t71 58.5q61 44 139 63q61 13 112 3.5t81 -35.5t49 -63t17.5 -78t-13.5 -81q-16 -42 -48.5 -74.5t-70.5 -47.5t-75 -16.5t-66 17t-39 54.5q-8 31 -4 56t16.5 43.5 t26 31t24.5 18.5l10 6q-13 -8 -26.5 -31.5t-21 -52t1 -57.5t36.5 -45t62 -10q73 9 124 80t37 139q-10 58 -75 84q-67 27 -148 4q-55 -18 -105 -54t-82 -75t-56.5 -76t-34.5 -60l-11 -24q-15 -27 -25.5 -64.5t-9.5 -85.5t18 -89.5t65.5 -74.5t123.5 -42q77 -10 153 19.5 t140 86.5t123.5 137.5t105.5 168.5t83 184q67 169 122 284q-59 30 -94 68q-42 42 -55 82q6 -13 18 -30t52 -45t94 -44q79 157 233 402q30 51 70 98q-141 50 -352 115q-112 34 -213.5 42t-176.5 -4t-141.5 -41.5t-110.5 -64.5t-81 -78q-63 -75 -78.5 -169.5t24.5 -182.5 q65 -126 185 -123q63 7 113 35.5t76.5 63.5t44.5 69.5t23 58.5l5 23q25 -63 -18 -145t-134 -132q-71 -37 -151.5 -38t-151.5 36z" />
<glyph unicode="G" horiz-adv-x="1435" d="M-178 -692q-68 25 -94 91t10 128q63 109 235 184q89 41 192.5 70t188 42t156.5 19.5t112 7.5h40q-23 -1 -63 -5.5t-153 -26.5t-213 -54.5t-217 -97t-192 -147.5q-36 -41 -37 -73.5t20 -50t58 -28.5q164 -51 434 98q122 68 221 156t162 174t110 182.5t70 174t37 157.5 q-8 -7 -21.5 -18.5t-57.5 -45t-89 -62.5t-111 -63t-128.5 -55.5t-136 -30.5t-139 2.5t-132.5 52t-121 110.5q-118 161 -106.5 387.5t139.5 445.5q-36 111 14 238q-2 -10 -5 -28.5t0.5 -70t19.5 -96.5q134 208 349.5 338.5t483.5 136.5q188 3 318 -106q157 -137 96 -326 q-26 -81 -81.5 -146.5t-131.5 -107.5q-179 -100 -387 -121t-376.5 33.5t-252.5 165.5q-91 -212 -71.5 -418t134.5 -336q46 -52 104.5 -75.5t115.5 -19.5t120 25.5t116.5 52.5t107.5 69.5t90 69.5t66.5 58.5t35.5 30.5l176 172q0 -8 0.5 -21.5t-1.5 -58.5t-8 -91t-20 -114.5 t-35.5 -134.5t-57.5 -145.5t-82.5 -152t-114 -150t-148.5 -143.5q-237 -180 -431 -237t-318 -15zM580 1446q-181 -76 -309.5 -193.5t-202.5 -259.5q139 -181 526 -168q170 3 321 80q177 92 237 233q52 122 -3 227q-54 104 -186 136q-164 39 -383 -55z" />
<glyph unicode="H" horiz-adv-x="2146" d="M1012 510q-13 -27 -39.5 -91t-48.5 -115t-63.5 -127t-87 -141t-116 -143t-153.5 -147q-85 -70 -178.5 -111.5t-178 -51t-161 8.5t-131.5 60t-85.5 110t-27.5 152q4 85 32.5 162t73 135t85.5 96.5t85 69.5q77 55 166 76q73 16 133.5 5t96.5 -42t58.5 -75t21 -93.5 t-16.5 -97.5q-32 -84 -110.5 -131t-152 -34t-93.5 85q-10 37 -5.5 67t19.5 52.5t31 37t28 21.5l13 8q-21 -16 -41 -57t-17 -91.5t46 -74.5q35 -18 73 -15q89 12 151 98t44 167q-13 68 -90 98q-81 34 -176 4q-66 -21 -126 -63.5t-98.5 -89t-67.5 -90t-42 -71.5l-13 -28 q-18 -32 -30 -77.5t-10.5 -102.5t21.5 -107t77.5 -89t146.5 -50q92 -11 183 24t168 102.5t148 163.5t125.5 201t98.5 220q70 183 129 303q-112 -7 -205 -53q2 5 6.5 13t23.5 28.5t43.5 37t69 31t97.5 17.5q96 191 279 481q56 89 115 157.5t103 102.5t80 55.5t55 26.5l19 4 q-55 -42 -107.5 -97.5t-94 -112t-82 -127t-70 -130t-61 -133t-51 -124t-42.5 -114.5q33 -5 84 -18q228 -64 461 -17q94 161 191 306.5t157 222.5q38 48 84 83t84 52t70.5 26.5t51.5 10.5l18 2q-219 -186 -490 -655q40 15 75 31.5t51 25.5l15 10q-8 -10 -22.5 -26t-63 -55.5 t-100.5 -67.5q-41 -76 -92.5 -175t-59.5 -114q-31 -60 -60.5 -141.5t-51 -167t-14 -147.5t52.5 -68q36 -6 81 15.5t83.5 56t71.5 69.5t52 61l19 25q-13 -36 -41.5 -80t-71 -91.5t-92.5 -78t-107.5 -40t-115.5 23.5q-34 21 -51 63q-72 189 223 727q-66 -10 -129 -4 q-80 8 -211.5 34t-177.5 32q-31 -84 -47 -115z" />
<glyph unicode="I" horiz-adv-x="1413" d="M993 330q95 249 180 409.5t248 421.5q55 87 112.5 153t100.5 99t78 54t54 25l18 5q-96 -72 -181 -184t-145 -234t-103.5 -228.5t-81 -209.5t-52.5 -135q-14 -28 -39.5 -88t-47.5 -110t-62 -123t-84 -136.5t-112 -139t-149 -142.5q-83 -68 -173.5 -108t-172 -49 t-155.5 8.5t-127 58t-82.5 106t-26.5 147.5t30 156t71 130.5t82.5 93.5t82.5 69q76 55 162 72q62 13 110.5 7t85 -25.5t60 -50.5t34.5 -68t9.5 -77.5t-15.5 -78.5q-18 -49 -56 -86.5t-81.5 -55t-86.5 -19.5t-76.5 20t-45.5 63q-9 36 -4.5 65t19 50.5t30 36t27.5 21.5l12 7 q-21 -14 -40.5 -54.5t-16.5 -89t45 -71.5q29 -17 72 -14q86 12 144.5 94t43.5 162q-13 65 -88 96q-78 34 -170 4q-47 -15 -90.5 -41t-76.5 -56.5t-61.5 -63.5t-47.5 -63t-33 -54.5t-21 -38.5l-6 -15q-18 -32 -30 -76t-10.5 -99.5t21 -103.5t75.5 -85.5t143 -48.5 q110 -13 218 41t197 157t160 226t125 264z" />
<glyph unicode="J" horiz-adv-x="1296" d="M455 1153q91 90 234.5 163.5t282.5 114.5t265.5 69t204.5 37l78 9q5 7 14 18.5t35.5 40.5t51.5 51.5t58 41t60 18.5q46 0 67 -34q26 -42 -26 -90q-69 -62 -246 -97q-86 -80 -162.5 -193.5t-131 -229.5t-95.5 -218.5t-75.5 -196.5t-51.5 -127q-14 -28 -47.5 -109 t-66.5 -147t-86 -154.5t-132 -178.5t-178 -172q-85 -70 -178.5 -111t-177.5 -50.5t-160.5 8.5t-131 60.5t-85 110.5t-27.5 152q3 82 30 157.5t70.5 132.5t83.5 95.5t84 70.5q85 62 174 80q73 15 133.5 4t96.5 -42t58.5 -74.5t21 -93t-16.5 -97.5q-19 -50 -58 -89 t-84.5 -56.5t-89.5 -19.5t-79 20.5t-47 64.5q-9 37 -4 67t20 52.5t31 37.5t28 23l13 7q-22 -16 -42.5 -59t-15.5 -94.5t52 -74.5q23 -10 59 -10q60 5 112 47.5t77 102.5t14 114q-13 66 -90 98q-81 36 -182 5q-65 -22 -124 -65t-97 -89.5t-66.5 -89.5t-41.5 -70l-13 -28 q-18 -32 -30 -77.5t-11 -102.5t21.5 -107t78 -89t147.5 -50q91 -11 182 24t167.5 102.5t147.5 163.5t126 200.5t100 219.5q113 294 200 465.5t243 390.5q36 50 73.5 95.5t60.5 70.5t58.5 62t48.5 51q-146 -23 -320.5 -84t-289.5 -115.5t-217 -111.5q-143 -79 -203 -218 q-43 -111 -26.5 -194t81.5 -124t148 -17q60 18 102.5 65.5t60 102.5t26.5 108t8 88v35q40 -85 32 -168t-47.5 -149t-112 -108t-161.5 -46q-112 -3 -180 65q-87 85 -68 244q23 164 154 295zM1710 1671q-30 -3 -65.5 -33t-55.5 -59l-20 -29q54 3 100.5 18.5t65.5 30.5 q23 17 13.5 46t-38.5 26z" />
<glyph unicode="K" horiz-adv-x="2215" d="M2001 1090q42 65 72 108.5t63 88.5t57 72.5t52.5 53.5t51 37.5t50 19t52.5 4t56.5 -13t64 -27.5t71.5 -44q-13 8 -29.5 16.5t-52 18.5t-68 8.5t-71.5 -21.5t-70 -61q-160 -222 -204 -278q-177 -224 -350 -326q-122 -72 -261 -99q10 -4 26 -12t58 -40.5t76.5 -74.5 t67 -116t42.5 -162q19 -219 112.5 -375t205.5 -203q48 -20 89 -21.5t70 14t49 38t33 51.5q-1 -5 -3.5 -14t-13.5 -31.5t-25.5 -41t-43 -35.5t-63.5 -21.5t-88.5 7.5t-116.5 44q-71 39 -127 101.5t-87.5 122.5t-53.5 129t-30 112t-11 80q-10 71 -29 127q-15 43 -36.5 83.5 t-56 87t-86 86t-114.5 64.5l-8 2q-9 -26 -35 -86l-20 -45q-6 -14 -32.5 -77t-42 -95.5t-48 -97t-65 -112t-78 -109t-103 -119.5t-123.5 -113q-85 -70 -178.5 -111.5t-177.5 -51t-160.5 8.5t-131 60t-85 110t-27.5 152q3 85 31 162t73 135t85.5 96.5t85.5 69.5q83 57 166 74 q64 14 114 8.5t88 -26t62.5 -52.5t36 -70t10 -80t-15.5 -81q-19 -50 -58 -89.5t-84.5 -57.5t-90 -20t-79.5 21t-47 66q-9 37 -4 67t20 52.5t31 37t28 22.5l13 7q-21 -16 -41.5 -57t-18 -91t45.5 -75q33 -17 76 -14q89 12 149 97t45 167q-16 68 -92 98q-81 34 -176 4 q-48 -15 -92.5 -42t-78 -58t-63 -65.5t-49.5 -65.5t-35 -56t-21 -40l-7 -15q-18 -32 -30 -77.5t-10.5 -103t22 -107.5t78 -89t147.5 -49q91 -11 182 24t167.5 102.5t147.5 164t126 201t100 219.5q100 259 188 427.5t252 428.5q56 90 115.5 159t104 103t81 55.5t55.5 25.5 l19 5q-67 -50 -128.5 -118t-112 -148t-91 -153.5t-79 -164t-61 -149.5t-51.5 -137l-12 -33l-2 -6h8q50 7 101.5 19t129.5 42.5t148 73.5t147.5 116.5t137.5 166.5z" />
<glyph unicode="L" horiz-adv-x="1746" d="M-430 1755l-4 4zM1307 1442q153 189 256 203q70 10 89 -66q4 -12 5 -27q5 -54 -27 -137.5t-96.5 -183t-180 -210.5t-259.5 -202q-7 -4 -19 -12q-5 -10 -17.5 -37t-19.5 -43q-5 -14 -15.5 -38t-48 -97t-81.5 -145t-117 -169t-153 -180q112 -27 229 -61q233 -65 304 -78 q178 -33 327 14q26 8 53 19q-9 -8 -26.5 -21t-79 -40.5t-130.5 -43t-180.5 -13t-230.5 35.5q-22 6 -65.5 21t-47.5 16q-118 46 -237 67q-4 -3 -13.5 -11t-13.5 -11q-111 -98 -210.5 -156t-177 -73.5t-135.5 -9.5t-108 32q-42 27 -62 70t-7 88q26 99 141 170q101 58 223 55 q154 -3 408 -62q131 175 231 433q74 172 82 190q-217 -67 -420 0l22 -5.5t59.5 -8t93.5 -4t118.5 12.5t138.5 36q91 190 148 293q141 254 250 389zM479 -8q5 4 29 28q-175 29 -324.5 21t-261.5 -49q-47 -16 -65 -60q-4 -4 -4 -8q-13 -35 4 -69t53 -48q35 -12 82.5 -14t107 9 t122 33t130 62.5t127.5 94.5zM1559 1618q-27 4 -57 -13.5t-66 -64t-71 -103.5t-83.5 -152.5t-93 -188.5t-109.5 -234q60 36 135 101q242 214 345 418q71 139 42 204q-12 28 -42 33z" />
<glyph unicode="M" horiz-adv-x="2703" d="M2044 -29q3 -65 37 -116t80 -78.5t91.5 -45.5t77.5 -23l31 -5q-33 -6 -74.5 -3.5t-84 8t-84.5 25.5t-76 48t-59 77.5t-33 112.5q-13 92 39 264t121 325.5t144.5 315t90.5 203.5q17 47 17 79t-10.5 45t-27.5 18q-25 9 -51 -4q-101 -53 -212.5 -156t-209.5 -224.5 t-192 -256.5t-168.5 -258.5t-131.5 -224t-87 -160.5l-31 -60h-166q75 91 153.5 249.5t139 328.5t105.5 319.5t69 259.5q39 172 -29 244q-18 21 -49.5 24t-64.5 -18q-104 -69 -209 -183.5t-189.5 -243t-162.5 -268t-135.5 -265t-100.5 -226.5t-64 -161l-22 -60h-190 q144 229 247.5 439.5t158 373.5t77 304t14.5 240t-39 173q-23 52 -67.5 86t-100.5 43q-46 6 -90 -6q-35 -9 -70 -20.5t-59.5 -20.5t-59 -27t-49 -25t-51.5 -31t-44.5 -29t-49 -34t-45.5 -32q-198 -134 -313 -330q-64 -106 -94 -209t-26.5 -183t26.5 -148.5t62.5 -114.5 t84 -73t88.5 -30q97 -8 209.5 51.5t192 159.5t82.5 199q2 58 -22 97t-59 53.5t-70 20.5t-60 4l-25 -3q156 39 238 -31q54 -45 51 -121q-5 -143 -109 -273t-284 -192q-104 -37 -222.5 -6t-203 125.5t-91.5 256t111 386.5q71 116 160.5 215t171.5 162t173 114.5t154 77 t126 44.5q133 38 247 6q90 -31 146.5 -96t75.5 -144.5t21 -169t-14.5 -172.5t-33.5 -150.5t-32 -108.5l-15 -40q159 330 359 523q161 154 278 154q107 0 137 -134q5 -24 8 -51q10 -109 -13 -246.5t-62.5 -255t-80 -219t-70.5 -160.5l-30 -59q87 154 216 341.5t288.5 375.5 t277.5 270q61 43 117.5 62.5t98.5 16t72.5 -24.5t43.5 -55t8 -80t-30 -95q-43 -85 -57.5 -114.5t-70 -144.5t-85 -181.5t-76.5 -177.5t-71 -184.5t-42 -151.5t-16 -126z" />
<glyph unicode="N" horiz-adv-x="2031" d="M1917 -283q-17 0 -53.5 -1.5t-60 -2t-59 2.5t-59 11t-52 25.5t-46.5 42.5t-32 65.5t-19 92.5q-7 79 39 218.5t118 290.5t146 297t131.5 270.5t65.5 178.5q6 41 -0.5 70t-21.5 42t-35 19t-40.5 4t-38.5 -5.5t-29 -7.5l-11 -5q-105 -52 -209 -135t-191 -178.5t-169 -204.5 t-148 -217t-123.5 -211.5t-99.5 -192.5t-72 -156.5t-45 -105.5l-15 -39h-145q121 181 274 555t201 619q18 91 15 155q-5 91 -69.5 146t-162.5 51q-99 -9 -196.5 -44.5t-173 -85.5t-144 -108.5t-117 -115.5t-84.5 -103.5t-54 -75.5l-17 -28q-3 -6 -8 -16.5t-18.5 -43 t-24 -65.5t-20.5 -79t-13 -87.5t4 -87.5t25.5 -83t55.5 -69t91 -51q102 -32 187.5 -9.5t154.5 81.5t114.5 130t67 136t12.5 99q-8 32 -30.5 51t-49 24t-51.5 5.5t-42 -2.5l-17 -3q48 29 100 29q67 3 114 -45.5t42 -116.5q-5 -90 -61 -186.5t-152 -165.5q-146 -105 -326 -96 q-233 15 -307 231q-61 186 33 399q60 124 173 246.5t246.5 216t285 145.5t278.5 36q58 -6 111 -35q73 -41 111 -110t40 -145.5t-13 -160t-44.5 -158.5t-57 -135t-48.5 -95l-21 -36q101 167 206.5 302t193 220t176 148t151.5 93.5t125 49.5q66 17 121 6q63 -12 102.5 -53 t42.5 -104q4 -63 -17.5 -139t-45.5 -121l-23 -44q-211 -381 -329.5 -640.5t-129.5 -397.5q-3 -46 20 -84.5t64 -58.5q48 -22 99 -36.5t77 -18.5z" />
<glyph unicode="O" horiz-adv-x="1402" d="M1231 786q57 36 108.5 76.5t85 72.5t58.5 58.5t36 40.5l11 15q-75 -184 -303 -326q-4 -44 -11.5 -86t-12.5 -62l-5 -20q-53 -138 -121 -252t-140 -191.5t-150.5 -134.5t-155 -85t-150.5 -38.5t-140 1t-121.5 36t-97 64.5t-63.5 90q-49 121 -44.5 260t55.5 287 q-30 22 -45 35q-64 56 -94.5 134.5t-22.5 164.5q6 70 33 139t85 139.5t140 123t209.5 83.5t283.5 27q107 -3 194 -27.5t146.5 -62.5t104 -91.5t69.5 -109.5t39.5 -121.5t18 -122.5t0.5 -117zM623 -39q144 83 252 201.5t169.5 244.5t85.5 261q-68 -35 -139.5 -63.5 t-108.5 -40.5l-38 -11q-444 -96 -688 -2q-86 -227 -47 -379q31 -117 97.5 -178t149.5 -78q138 -31 267 45zM1139 733q11 108 -4 208t-57.5 184.5t-107 146.5t-158 96t-204.5 31q-134 -4 -249.5 -46.5t-193 -107.5t-127 -146.5t-60 -163t17 -158t94.5 -128.5q106 257 283 408 q55 47 109 78.5t96.5 44t81 17t66 -1t48.5 -11.5t31 -12l10 -7q-87 8 -182.5 -37t-179.5 -126t-156 -185t-121 -217q108 -48 268 -45q377 8 695 178z" />
<glyph unicode="P" horiz-adv-x="1640" d="M289 -100q-84 -59 -173.5 -91t-168 -35t-148.5 18.5t-118 64.5t-72 108t-15 144q7 64 30.5 123t53 101t69 81t71 62t65.5 44q74 46 158 58q69 10 124.5 -4t88 -46t49 -74t13.5 -88.5t-23 -89.5q-26 -57 -78.5 -93.5t-105.5 -44t-97.5 15t-54.5 73.5q-7 36 -1 63 t21.5 46.5t31.5 32t28 18.5l12 6q-20 -12 -41.5 -49t-22 -84t37.5 -72q30 -21 67 -18q56 3 105 39.5t75 89.5t19 102q-8 64 -76 99q-74 36 -164 16q-62 -15 -121 -51t-98 -76.5t-69 -79t-44 -63.5l-14 -25q-19 -29 -33.5 -70.5t-17 -95t13 -101t66 -88t133.5 -56.5 q105 -20 212.5 24t200 136.5t169.5 206t139 245.5q111 233 204 382t265 384q69 94 149 170q-361 111 -588 75.5t-333 -131t-58 -172.5q22 -36 71.5 -43t103.5 9.5t105.5 38t84.5 40.5l33 19q-3 -2 -7.5 -6.5t-20.5 -17.5t-32.5 -25t-41.5 -27t-49.5 -27.5t-54.5 -23 t-58.5 -15.5t-60 -3t-60.5 12q-63 24 -81.5 88.5t15.5 120.5q40 71 138 124.5t236 80.5t324.5 9.5t380.5 -85.5q46 35 89.5 56.5t63.5 25.5l21 4q-64 -41 -129 -103q162 -52 287 -182q67 -83 74 -189t-49 -198q-45 -76 -113.5 -138.5t-148.5 -103.5t-161.5 -70.5t-168.5 -46 t-152.5 -25t-130.5 -11.5q-34 -66 -69 -122t-88.5 -126t-126 -139t-160.5 -131zM815 573q-25 -44 -45 -86q90 0 175 14t155 39t132.5 59.5t110.5 75.5t87 86t63.5 91.5t37.5 92t12 87.5t-15 78q-34 87 -108.5 143.5t-164.5 85.5q-81 -89 -158.5 -213t-124 -222t-93 -199.5 t-64.5 -131.5z" />
<glyph unicode="Q" horiz-adv-x="1226" d="M739 1268q-6 1 -18 2t-48.5 -1.5t-74 -12t-91.5 -35.5t-104 -65t-108 -107t-107 -156q-88 -158 -131.5 -316t-38.5 -280.5t60 -204t153 -94.5q235 -31 465 147q-42 25 -90 46.5t-75 30.5l-27 9q120 21 239 -47q155 139 279 351q55 94 76 211.5t4 234.5t-72 224t-151 181 t-233.5 105.5t-319.5 -2.5q-114 -21 -203.5 -91t-130.5 -175q-61 -151 -12 -336q-6 9 -15.5 25t-27.5 66t-23.5 100.5t11.5 121.5t63 135q103 142 282 185q67 16 134 25.5t159.5 9t174.5 -18.5t171 -65.5t158 -122.5q92 -99 119 -257t-7 -325.5t-131.5 -336.5t-240.5 -286 q99 -76 108 -157q8 -57 -20 -111q-43 -84 -145 -111q-196 -55 -422 15q-46 13 -81 48t-50 81l43 -19q136 -59 275 -84.5t238.5 -1.5t104.5 103q8 108 -102 196q-173 -120 -373 -153q-161 -26 -279 55q-175 121 -190 375q-6 100 22.5 215t84.5 222.5t134.5 204t172 160 t198.5 91t213 -3.5z" />
<glyph unicode="R" horiz-adv-x="2140" d="M1128 721q-10 -22 -34.5 -79.5t-43 -99t-55 -107.5t-75.5 -120.5t-99.5 -120.5t-130.5 -124q-74 -61 -155.5 -96.5t-154.5 -43.5t-139 7.5t-113.5 52t-74.5 95.5t-24 132q3 74 27.5 141.5t63 117.5t74 84t74.5 61q64 46 144 65q55 12 99 6.5t77 -23.5t54 -46t31 -61 t9 -69.5t-14 -70.5q-26 -73 -95 -114t-133.5 -29.5t-81.5 73.5q-9 33 -5 59t17 45.5t26.5 32t24.5 19.5l11 6q-18 -13 -35.5 -49.5t-14.5 -80.5t40 -65q32 -16 63 -10q78 9 131.5 83.5t38.5 144.5q-10 59 -77 86q-72 29 -154 6q-57 -18 -109.5 -56t-86 -78.5t-59 -78 t-37.5 -62.5l-11 -24q-12 -23 -21 -54.5t-14 -71.5t4.5 -79t31 -74t67.5 -60.5t112 -33.5q99 -12 196 37t177 141.5t143.5 204t112.5 238.5q88 224 164.5 369t220.5 376q63 101 137 178q-325 45 -540 -60q-121 -60 -161 -143q-29 -62 1 -102q22 -29 64.5 -30t87.5 18 t86.5 42t67.5 42l27 20q-6 -8 -18 -20.5t-48 -42.5t-71.5 -51t-85.5 -33.5t-94 -1.5q-57 13 -78 66.5t4 105.5q34 81 142 144t276.5 91t382.5 -6q38 34 74.5 55.5t53.5 26.5l17 4q-65 -51 -104 -94q245 -46 366.5 -144t86.5 -208q-18 -60 -63.5 -110.5t-103 -85.5 t-132.5 -63t-142.5 -44t-143 -28t-124.5 -16.5t-96 -7.5q85 -182 139 -333q55 -147 140 -286t177 -198q39 -27 89 -28.5t92 22.5q153 83 254 287q7 13 20.5 39.5t20.5 40.5q2 0 2 2q3 -46 -23 -90q-1 -2 -3 -6.5t-3 -6.5q-41 -71 -85 -130t-96.5 -110.5t-112 -80.5 t-118.5 -29q-42 0 -80 14q-53 18 -100 50.5t-82 68.5t-68 91t-54 97.5t-45.5 110t-37 107t-32.5 108.5q-20 73 -50 156zM1503 1491q-56 -69 -106 -151.5t-92 -177t-64 -151.5t-55 -147q81 4 167 18.5t175.5 43.5t160.5 68t119.5 97t55.5 126q13 111 -79.5 176.5t-281.5 97.5 z" />
<glyph unicode="S" horiz-adv-x="1765" d="M1524 1548q118 -77 108 -190q-5 -47 -29 -84t-55 -56t-61.5 -31.5t-50.5 -16.5l-21 -3l7.5 2.5t18.5 8t27 14t30 20.5t31 28t26.5 35.5t19 43.5t7 53t-8.5 62q-18 67 -123 99.5t-235.5 24t-267 -66t-208.5 -154.5q-28 -37 -34 -83.5t14 -88.5q63 -134 270 -194l107 -37 q98 -38 173.5 -82.5t133 -105.5t79 -130.5t0.5 -158.5t-91 -187q-96 -134 -266 -233t-355 -140.5t-373.5 -19.5t-316.5 115q-103 75 -158.5 172.5t-57.5 198.5t34.5 198t116 179t188.5 134q-13 -13 -33.5 -35t-70 -89.5t-84.5 -132t-54.5 -150.5t-1.5 -158q20 -75 58 -138.5 t108.5 -119t164.5 -85.5t233 -27.5t306 45.5q254 64 418 252q156 175 119 339q-11 53 -49.5 95.5t-92 71t-119.5 57t-133.5 51.5t-133.5 55.5t-118.5 69t-89.5 92.5t-46 125q-10 71 11.5 133t67 106t108.5 80.5t136 57t150 34.5t149.5 14t134.5 -5q102 -10 183 -64z" />
<glyph unicode="T" horiz-adv-x="1132" d="M1894 1505q4 0 10.5 -1.5t22.5 -8.5t28.5 -17.5t22.5 -30.5t9 -46q0 -27 -21 -46t-65 -28t-107.5 -7t-154.5 18t-201 46q-79 -111 -145 -257t-113 -275t-62 -158q-12 -25 -35 -79.5t-42.5 -99.5t-55 -110.5t-75.5 -122.5t-101 -125t-133 -128q-89 -73 -187 -110.5 t-182.5 -33.5t-153 36.5t-107 99.5t-34.5 155q3 74 28 141.5t64 117.5t74 84t74 61q71 49 145 63q55 12 99 7t77 -22.5t54 -45.5t31 -61t9 -69.5t-14 -70.5q-16 -44 -50 -78t-73.5 -49.5t-78 -17.5t-68.5 18t-41 57q-9 33 -5 59t17.5 45.5t27.5 32t25 18.5l11 7 q-19 -13 -36.5 -49t-14.5 -80t41 -65q29 -16 63 -13q77 10 130.5 85t39.5 145q-13 59 -80 86q-72 29 -153 4q-57 -18 -109.5 -55t-86 -77.5t-59 -79t-36.5 -62.5l-11 -25q-16 -28 -26.5 -67.5t-9 -89.5t19 -93.5t67.5 -77.5t128 -43q99 -12 196 37t177 142t143.5 203 t113.5 237q85 223 161 366t224 381q41 66 84 119q-211 70 -354 112q-112 34 -213 43t-176.5 -3t-141.5 -41.5t-110.5 -64t-81.5 -77.5q-63 -77 -77.5 -170.5t26.5 -181.5q28 -57 74 -90.5t108 -32.5q46 5 85 21t65.5 38t47 48t32.5 50.5t19.5 45t10.5 32.5l2 13 q27 -63 -16 -144t-135 -131q-69 -37 -150 -38t-153 36q-95 51 -138.5 149.5t-29.5 207.5q5 37 24.5 80t53.5 92.5t87 92.5t120.5 79.5t159.5 54t197.5 16.5t241.5 -34t285 -97q74 -33 170 -69q33 37 67 66t58.5 43.5t44 24t29.5 11.5l10 2q-83 -61 -162 -164 q263 -69 391 -55q51 5 77.5 19t29 30.5t-7.5 35t-26.5 32.5t-33.5 22z" />
<glyph unicode="U" horiz-adv-x="2129" d="M1841 -94q74 -27 115 -33l26 -4q-32 -4 -64 -4.5t-70.5 4.5t-73 15.5t-69.5 31.5t-61.5 49.5t-46.5 72.5t-28 99q-14 112 61 330q-2 -2 -10 -14q-230 -301 -448 -437q-186 -117 -288 -68q-64 30 -81 122q-14 77 21.5 212t97 287t126 304.5t113.5 300t53 237.5 q3 68 -18 118.5t-57 77.5t-80.5 44t-90 20t-83 3t-61.5 -4l-23 -3q-171 -43 -313 -123.5t-233 -178.5t-154.5 -208t-84.5 -217t-15.5 -201.5t45.5 -165.5t104 -104q93 -43 186 -33.5t177.5 63.5t146.5 124.5t92 150t14 139.5q-15 52 -41.5 81t-54.5 32.5t-53.5 0 t-41.5 -12.5l-16 -8q26 58 88.5 69.5t108.5 -31.5q57 -56 72.5 -136.5t-23.5 -178t-135 -182.5q-129 -113 -265.5 -150.5t-260 9.5t-205.5 178q-48 90 -52.5 199.5t29.5 218.5t103 218t161.5 200.5t213 163t249.5 106.5q136 36 246 40t182.5 -17.5t124 -64t77 -95.5 t36 -116.5t6 -122t-18.5 -116.5q-20 -81 -87 -242t-133.5 -309t-122 -305.5t-58.5 -243.5q-3 -103 85 -102q104 1 278 136q54 41 108 91q123 118 233 279q44 67 127 181.5t144 196.5l61 81q-9 -31 -46 -117.5t-78 -179t-79 -206.5t-55.5 -209.5t0.5 -177t80 -118.5 q43 -29 88 -47z" />
<glyph unicode="V" horiz-adv-x="1888" d="M1636 1305q89 -11 148.5 -54.5t81.5 -119t6 -175.5t-82 -231.5t-178 -278.5q-230 -300 -448 -437q-185 -115 -288 -67q-64 29 -81 121q-14 77 21.5 212.5t97 287.5t126 304.5t113.5 300t53 237.5q3 68 -18 118.5t-57 77.5t-80.5 44t-90 20t-83 3t-61.5 -4l-23 -3 q-134 -34 -251 -91t-202 -126.5t-153 -151t-108.5 -166t-64.5 -168.5t-24.5 -161.5t15 -143t51 -115t85.5 -75.5q93 -43 186.5 -33.5t178 63.5t146 124.5t92 150t14.5 139.5q-15 52 -41.5 80.5t-54.5 32.5t-53.5 0t-41.5 -12l-16 -9v2q19 41 59.5 57t83.5 5q56 -14 90 -74 q37 -59 40 -132t-37.5 -157.5t-124.5 -158.5q-129 -113 -265.5 -150.5t-260.5 9.5t-206 178q-48 90 -52.5 199.5t29.5 218t103.5 218t162 200.5t213 162.5t249.5 106.5q136 36 246 40.5t182.5 -17t124 -64t77 -95.5t36 -116t6 -121.5t-18.5 -115.5q-20 -81 -87 -243 t-133.5 -310t-122 -305.5t-58.5 -243.5q-3 -101 81 -98q102 4 277 147q187 153 346 375q195 276 195 580q-1 48 -27 87.5t-62 62.5t-71.5 39t-60.5 22l-25 6z" />
<glyph unicode="W" horiz-adv-x="2861" d="M2204 1311q19 16 51 29.5t74 19t86.5 -0.5t88.5 -34t79.5 -75.5t60.5 -132.5t31 -197q4 -113 -30.5 -224t-96 -201t-140.5 -170t-166.5 -137.5t-172 -96t-158 -52t-123.5 -0.5q-48 13 -82.5 48.5t-51 82.5t-25.5 100.5t-8 105t4 93t7 67.5l4 25q-7 -11 -19 -31 t-50.5 -78.5t-78 -112t-96 -121t-109.5 -119t-114 -92t-114 -52.5q-40 -11 -67.5 -2.5t-46 25t-26.5 47.5t-10 65.5t3.5 79t14 88t21.5 92.5q45 169 121 332q79 173 155 395.5t97 376.5q4 41 0 62q-12 66 -65.5 107.5t-139.5 49t-190 -15.5t-227.5 -91t-239.5 -171 q-104 -91 -180 -194.5t-115.5 -200.5t-49 -190t13 -166.5t77.5 -126.5t137 -73q83 -19 154 -3t127.5 57.5t99.5 97t71.5 115.5t42 112.5t11.5 87.5q-2 38 -26.5 64t-58 36t-66.5 14t-56 3l-23 -2q8 6 21.5 14t54.5 19t80 6q64 -9 105.5 -59t39.5 -115q-1 -70 -24.5 -143.5 t-68.5 -143.5t-122.5 -128t-175.5 -87q-129 -38 -241 -6q-65 19 -114 55t-78.5 82.5t-46.5 94t-24 100.5q-18 124 14 248.5t107 230.5q147 209 410 362q247 143 479 172q230 28 331 -74q62 -64 62 -173q-1 -152 -54.5 -343.5t-124 -356.5t-137 -316.5t-98.5 -263.5t-5 -158 q91 -151 507 470q12 19 34 52l26 39l176 258q-3 -10 -6.5 -28.5t-14 -81t-15 -124.5t-8.5 -160t5 -187q11 -147 121 -168q119 -23 299 101q96 65 192 163q94 98 152 215t74 220t11.5 197.5t-25.5 159t-48 93.5q-22 29 -59.5 45t-74 17.5t-70.5 -1t-55 -7.5z" />
<glyph unicode="X" horiz-adv-x="1441" d="M1073 1094q125 88 344 257.5t246 198.5q-72 -167 -213 -278q-214 -174 -649 -441q-28 -19 -70 -45q-4 -320 2 -422q15 -225 84 -286q28 -21 58.5 -23t59.5 11t59.5 39.5t58 59t55 73.5t49.5 79t43 80q59 116 158 195h2q-25 -31 -53.5 -84t-54.5 -107.5t-56.5 -115.5 t-66 -113.5t-77.5 -96t-97.5 -68.5t-118.5 -25q-47 1 -83.5 17t-61 49.5t-42 69t-26 95t-13.5 107t-4 124.5t3 129t7 138q-79 -54 -152 -109.5t-138.5 -112t-117 -101.5t-106.5 -102.5t-87.5 -90t-80 -88.5t-62 -73.5t-56.5 -70t-43 -53.5q-36 -43 -90.5 -86t-108.5 -60 q258 455 1047 1022q19 327 -3 480q-8 46 -41.5 78.5t-78.5 35.5q-70 0 -141 -22.5t-131 -60.5t-103.5 -74t-83.5 -76l-51 -53q1 1 2 4t2.5 6t3.5 6q17 41 49 78q41 50 99.5 98.5t130.5 91t155.5 61.5t157.5 3q32 -10 56 -36.5t39.5 -70t25.5 -92t15 -115t6.5 -126.5 t0.5 -138q76 51 193.5 129.5t148.5 100.5z" />
<glyph unicode="Y" horiz-adv-x="1882" d="M1866 -35q59 42 98 109q0 1 1 3t1 3v-6q-26 -91 -92 -142q-21 -18 -49 -32q-56 -29 -168 -44.5t-197 -16.5l-84 -1q-6 0 -18.5 -1t-18.5 -1q-49 -76 -108 -147q-189 -230 -466 -306q-201 -55 -369 -12q-127 32 -161 103q-23 47 5 98q58 105 221.5 180.5t379.5 109 t449 25.5q69 133 126.5 307.5t80.5 283.5l23 108q-32 -115 -109.5 -230t-172.5 -198t-204 -119.5t-196 -1.5q-45 24 -73.5 55.5t-38.5 75.5t-8.5 91.5t23.5 115t49.5 134t77 161.5t99.5 184.5t123 214.5q152 234 120 407q-24 129 -143 180q-143 61 -351 -16 q-195 -71 -392 -249q-304 -275 -346 -550q-27 -180 62 -309q67 -96 164 -116q34 -7 66 -2q70 10 136 48.5t116 92t88.5 115.5t60 122.5t23.5 110.5q2 46 -18 76t-50 40.5t-60.5 14t-51.5 0.5l-22 -2q171 53 251 -43q56 -71 29 -164q-18 -57 -47 -114.5t-72 -115.5 t-93.5 -104.5t-116 -80.5t-134.5 -45q-106 -16 -202 20.5t-160.5 116.5t-79.5 186q-20 147 44.5 315t196.5 318.5t304 249.5q115 66 234 105t223.5 47.5t195.5 -12t153 -67t92 -124t17 -177.5q-15 -113 -61 -221t-104.5 -197.5t-117.5 -176.5t-111 -193t-75 -213 q-54 -253 60 -271q96 -15 275 135q37 32 75 68q71 68 135 172t105.5 204.5t72.5 191t45 146.5l14 56q1 -14 1.5 -38.5t-2 -103t-9.5 -158t-26 -193t-47.5 -219t-77 -226.5t-111.5 -223q6 -1 17.5 -2t17.5 -2q298 -25 463 86zM1231 -213q5 7 14.5 22.5t14.5 22.5 q-170 -10 -311 -29.5t-234 -42.5t-165 -52.5t-111.5 -56t-65 -55.5t-33.5 -48t-10 -37q-4 -22 12 -35q67 -57 190 -57.5t252.5 44t253.5 131.5t193 193z" />
<glyph unicode="Z" horiz-adv-x="1333" d="M1866 1503q72 11 116.5 -21t42 -83.5t-52.5 -93.5q-78 -63 -327 -19q-79 -75 -161 -173.5t-124 -160.5l-43 -61q-100 -159 -303.5 -364.5t-431.5 -379.5q47 -24 105.5 -50t184.5 -80.5t275 -122.5q98 -45 188.5 -63t158 -11.5t125.5 26.5t97 49.5t66 59.5t38.5 54.5 t8.5 35.5q0 18 -14 29q-11 8 -27 8q-16 3 -29 0q17 6 37 6q18 2 33.5 -8t19.5 -27q4 -8 4 -14q2 -70 -35 -124.5t-100.5 -86t-145.5 -47t-171 -13t-176 20.5q-87 19 -187 57.5t-180 80t-148 80.5t-106 64l-37 25q-13 13 -26 21q-6 -5 -19.5 -15.5t-19.5 -15.5 q-97 -66 -185 -92.5t-150 -16t-105 42t-62 78.5q-21 51 -4 102t63 79q54 34 119 34.5t132 -24.5t155 -76q14 -8 38 -21.5t34 -19.5q62 61 178 204t157 189l467 531q105 105 224 209l-13 4q-161 52 -300.5 77.5t-239.5 24.5t-179.5 -16t-132 -45t-84 -61t-47.5 -66 q-18 -44 -2 -90q12 -32 32.5 -59.5t34.5 -38.5l15 -11q-6 0 -16 2q-74 11 -116 73t-23 134q16 68 70.5 127.5t146.5 97.5q277 83 655 -26q32 -8 119.5 -38t132.5 -44q173 140 250 153zM373 51q68 30 133 92q-92 65 -172 93t-130.5 22t-86.5 -27t-49.5 -49t-8.5 -51 q8 -39 49.5 -70t109.5 -39t155 29zM1903 1321q77 33 49 88q-13 24 -40 33t-52 -2q-81 -37 -168 -111q143 -35 211 -8z" />
<glyph unicode="[" horiz-adv-x="1552" />
<glyph unicode="\" horiz-adv-x="1165" />
<glyph unicode="]" horiz-adv-x="1552" />
<glyph unicode="^" horiz-adv-x="2076" />
<glyph unicode="_" horiz-adv-x="1024" d="M1024 -160h-1024v60h1024v-60z" />
<glyph unicode="`" horiz-adv-x="1024" d="M887 1079h-70l-330 201q-61 43 -61 84q0 30 20 50t54 20q36 0 96 -60z" />
<glyph unicode="a" horiz-adv-x="585" d="M401 492h45q-251 -388 -391 -453q-32 -14 -64 -1.5t-44 44.5q-19 44 -19 104q-4 -6 -10 -15.5t-26 -35t-40 -47.5t-47.5 -44.5t-52 -34t-51 -8.5t-47.5 26q-28 31 -33.5 82t12 112.5t52.5 128t91 134.5t124 126q56 46 108 62q122 40 139 -64l37 72h144l-303 -504 q-4 -6 -10.5 -15.5t-13.5 -33t-1 -39.5q3 -8 12.5 -10.5t26.5 4t40 21.5t56 47t71.5 76t89 113t105.5 153zM-270 66q9 -4 25 3.5t43 32t61 64t82 106.5t104 154q8 11 20 29.5t28.5 60.5t8.5 66q-6 14 -21 20t-30 0q-73 -27 -194 -215q-48 -75 -79 -130.5t-46 -89.5 t-18.5 -55.5t1 -31t15.5 -14.5z" />
<glyph unicode="b" horiz-adv-x="485" d="M150 678q4 -4 11 -11.5t19 -37t15.5 -65t-8.5 -98t-44 -134.5q-33 -74 -83 -138.5t-102.5 -105.5t-103.5 -65t-93 -23.5t-64 25.5q-39 41 -35 127q5 40 27 102q49 114 90 190l96 174l352 648h142l-527 -926q-57 -92 -88 -180q-10 -33 -10 -66q2 -109 114 -16 q45 37 107 108q47 55 83.5 121t55 122t30.5 103.5t15 75.5l3 27z" />
<glyph unicode="c" horiz-adv-x="389" d="M-336 41q71 17 195.5 134.5t261.5 316.5h45q-34 -57 -57 -86q-49 -64 -99 -121t-119.5 -125t-141 -111t-132.5 -47q-85 -7 -104 76q-21 90 44 225q77 158 220 260q71 50 149 78q16 6 49 10q73 0 80 -59t-42.5 -114.5t-90.5 -47.5q-14 3 -19.5 17.5t-2.5 33.5t10.5 38 t20 32.5t24.5 15.5q19 2 29.5 -10t17.5 -10q11 3 14 14q1 11 1.5 24t-10 23.5t-32.5 9.5q-13 0 -28 -6q-6 -2 -21 -12q-24 -18 -45 -39q-96 -109 -186 -260q-160 -264 -57 -263q11 0 26 3z" />
<glyph unicode="d" horiz-adv-x="567" d="M389 489h45q-30 -48 -69 -104t-96.5 -132t-118.5 -136.5t-109 -83.5q-31 -15 -63 -3t-44 44q-18 41 -18 102l-10 -15t-25.5 -34.5t-39 -47t-47 -44t-51.5 -33.5t-50.5 -8t-46.5 26q-28 31 -34 81t11 111t51.5 126.5t89.5 133t123 124.5q49 40 107 61q122 40 137 -63 l410 637h141l-672 -1063q-4 -6 -9 -16.5t-11.5 -34t-1.5 -37.5q3 -8 12 -10t26 4t40 21.5t56 47.5t71.5 76.5t89 114t106.5 155.5zM-285 59q9 -4 25 3t43 31t61 64t82.5 107t104.5 154q8 11 20 29t28 60t7 66q-4 15 -19 21t-30 0q-74 -27 -195 -213q-48 -75 -80 -131 t-46.5 -90t-17.5 -56t1.5 -31t15.5 -14z" />
<glyph unicode="e" horiz-adv-x="450" d="M227 510h47q-30 -57 -91.5 -139.5t-139 -166t-165 -145t-154.5 -67.5q-112 -12 -157 63q-50 81 7 215q45 106 150 215q191 199 321 220q34 6 63.5 -12t38.5 -50v-2q19 -68 -26 -129q-94 -123 -324 -199q-90 -29 -125 -110q-21 -51 -21.5 -99t17.5 -55q16 -10 32.5 -11.5 t50 7.5t89.5 50.5t131 113.5q158 151 256 301zM20 647q-59 -42 -125.5 -115.5t-103.5 -126.5l-37 -53q45 -14 98 5.5t97.5 59t82 85t59 83t22.5 52.5q0 31 -35 31q-30 0 -58 -21z" />
<glyph unicode="f" horiz-adv-x="307" d="M-313 358q49 15 93.5 43.5t73 58.5t49.5 57.5t31 44.5l9 18h30q-21 -50 -58 -93.5t-74.5 -70t-72 -45.5t-56.5 -27l-21 -8q8 -96 -28 -208t-97 -207t-131.5 -173.5t-138 -120.5t-109.5 -35q-95 15 -82 142q2 20 10 47q8 24 25 51q55 99 106 182l785 1203h121l-502 -779 q12 -18 21 -38t13 -31zM-414 57q39 77 55.5 141t12.5 100.5t-13.5 61.5t-20.5 34l-11 9q-311 -462 -389 -577q-33 -48 -49 -92q-43 -109 12 -121q58 -13 181 116.5t222 327.5z" />
<glyph unicode="g" horiz-adv-x="643" d="M-195 625q-68 4 -153.5 -48t-150 -123.5t-98.5 -148.5t-9 -121q16 -28 49 -28q53 -2 113 41t100.5 94.5t82 108.5t52.5 67q23 21 47.5 31t37.5 10h13q7 -67 -11 -174.5t-62 -220.5l-4 -11q-96 -243 -271 -391q-131 -113 -305 -135q-137 -18 -215 30q-75 47 -40 127 q17 38 58 79q154 137 560 247v-20q-363 -119 -492 -252q-73 -75 -42 -123q31 -46 133 -36q65 6 140 36q136 54 226 163.5t143 246.5l6 14q27 71 45 146t22 114l5 39q-65 -118 -183 -211q-120 -95 -200 -86q-69 10 -76 103q-7 99 47 206t145.5 184t188.5 95q84 18 164 -29 q29 -16 45.5 -35.5t20 -36t3 -31t-3.5 -22.5l-4 -8q-9 30 -25 52t-33 32.5t-33 16.5t-26 7z" />
<glyph unicode="h" horiz-adv-x="593" d="M-6 57q109 66 319 389h45q-172 -270 -303 -393q-52 -46 -125 -49q-24 0 -36 2q-57 12 -64 72.5t26 133.5t85 130q137 146 139 200q1 20 -21 21q-44 3 -123.5 -64t-177.5 -196l-207 -301h-133l740 1188h149l-457 -723q9 8 23.5 22t55.5 48t76.5 59t75.5 43.5t64 13.5 q41 -8 48 -50.5t-17 -102t-70 -121.5q-21 -27 -65 -82t-68 -86.5t-46.5 -70.5t-24.5 -64q-2 -12 5 -23t19 -14q28 -8 68 18z" />
<glyph unicode="i" horiz-adv-x="335" d="M193 485h36q-62 -118 -175.5 -263t-205.5 -197q-57 -32 -106 -7t-55 84q-4 24 7.5 73.5t43.5 98.5l227 390h125q-19 -40 -46.5 -86t-55.5 -87.5t-59 -85.5t-58 -83t-51.5 -76t-41 -67.5t-25 -55t-5 -41t20.5 -23.5q32 -13 86.5 24.5t113.5 105t107.5 130.5t85.5 119z M182 846q0 34 -23 57t-57 23t-58 -23t-24 -57t24 -58t58 -24t57 24t23 58z" />
<glyph unicode="j" horiz-adv-x="278" d="M-518 838q0 34 -24 58t-58 24q-32 0 -56 -24t-24 -58q0 -33 23.5 -56.5t56.5 -23.5q34 0 58 23t24 57zM-422 590h43q-8 -13 -23.5 -36.5t-70.5 -92.5t-116.5 -134t-161 -149t-205.5 -151q-29 -64 -52 -109t-62 -111t-89.5 -127t-110.5 -114q-113 -100 -204 -80 q-60 14 -78 73q-23 73 34 152q8 11 17 21q25 28 48.5 51t57 47t49.5 36t64 37.5t59 32t75.5 38.5t76.5 38l287 541l57 106h121q-3 -5 -72 -122.5t-135 -233t-92 -168.5q-12 -21 -25 -47q91 49 185 129.5t159.5 157t108.5 134t55 81.5zM-1112 -90q0 1 8 21.5t12 31.5 q-12 -4 -24 -12q-188 -77 -310 -212q-91 -100 -91 -169q1 -49 55 -55q49 4 99 37.5t91.5 86.5t71 99.5t55.5 97.5q20 42 33 74z" />
<glyph unicode="k" horiz-adv-x="573" d="M-121 49q76 51 174.5 150.5t158 170t103.5 128.5l39 4q-215 -265 -360 -406q-67 -67 -125 -88q-46 -19 -84 15t-25 81q9 37 47 97t35 75q-3 19 -35 23q-41 7 -80 -12t-63 -56l-131 -208h-119l574 907l182 284h129q-49 -72 -155 -241.5t-188 -303.5l-81 -134 q15 10 49 33.5t53 34.5t46 23t48 9.5t38 -17.5q45 -36 28 -92q-11 -32 -44.5 -65t-72.5 -57t-76 -44t-62 -30l-25 -11q39 -13 55 -43.5t7.5 -66t-36.5 -66.5q-31 -36 -35 -73q-2 -13 6 -20t25 -1zM-225 330q47 3 109.5 43t105 86t45.5 69q5 37 -23 45q-18 6 -49 -12 q-168 -101 -209 -201q-8 -11 -4 -22t25 -8z" />
<glyph unicode="l" horiz-adv-x="395" d="M-94 31q53 18 150 121t235 315h49q-239 -369 -389 -465q-19 -12 -29 -14q-32 -8 -53.5 -5.5t-32.5 9.5l-12 6q-50 37 -53.5 120.5t32.5 180.5q6 22 28.5 81.5t74 175t110.5 228.5q77 145 142 248t114 162t89 86t68.5 26.5t53.5 -22.5q14 -13 19 -44.5t-2 -79.5t-25 -106 t-55 -126.5t-87.5 -136.5t-127.5 -141t-170 -136q-31 -22 -66 -43q-2 -3 -5 -9.5t-12.5 -26t-18.5 -40t-21 -49.5t-21 -57t-17.5 -60.5t-13 -61.5t-4 -58.5t6.5 -53.5q0 -4 2 -8q6 -12 18.5 -16.5t22.5 0.5zM92 719q-21 -40 -55.5 -109.5t-46.5 -93.5q13 9 35 28t30 25 q320 262 379 541q26 125 -16 104q-65 -32 -252 -360q-37 -66 -74 -135z" />
<glyph unicode="m" horiz-adv-x="868" d="M252 63q100 85 204 211.5t175 227.5h35q-87 -127 -161 -221t-130.5 -151t-101 -84.5t-75.5 -27t-51 26.5q-34 35 -23 96t46.5 124.5t91.5 133.5q77 94 103 144q7 11 0.5 21.5t-23.5 6.5q-42 -11 -104 -69t-120.5 -133.5t-111.5 -149t-85 -123.5l-32 -51h-133 q37 45 176 264.5t138 233.5q-1 13 -13 20t-26 4q-41 -10 -102.5 -68t-120.5 -132.5t-112 -148t-86 -123.5l-32 -50l-135 -2l395 590h117l-125 -182q166 149 250 196q30 17 52 13t34.5 -17.5t17.5 -34.5q8 -24 -2 -55q-6 -18 -6 -29q0 -12 7.5 -18t19.5 6q151 155 229 150 q52 -4 51 -57.5t-53 -137.5q-24 -41 -65.5 -102t-86 -125.5t-53.5 -77.5q-18 -24 -30 -51q-2 -7 -5 -16t-4 -13q-2 -19 9.5 -29t31.5 -4q19 8 25 14z" />
<glyph unicode="n" horiz-adv-x="495" d="M264 500h33q-85 -127 -157.5 -220.5t-128 -150t-99.5 -84t-74.5 -27t-50.5 26.5q-32 35 -22 94t45 124t90 132q65 82 100 144q7 11 0.5 21.5t-23.5 6.5q-43 -11 -110 -78q-69 -67 -131 -165l-172 -281h-133l366 584h129l-71 -105q134 138 213 135q51 -3 50 -56.5 t-52 -137.5q-78 -124 -203 -301q-19 -30 -29 -53q-4 -7 -6 -17l-2 -10q-2 -20 9.5 -29.5t31.5 -3.5q16 8 24 14q164 139 373 437z" />
<glyph unicode="o" horiz-adv-x="475" d="M371 571h22q-7 -17 -22 -43t-48 -71t-88 -85t-120 -59q-14 -30 -43 -71q-86 -129 -191 -190.5t-168 -20.5q-62 43 -45 162.5t103 248.5t191.5 190.5t166.5 18.5q50 -36 49 -120.5t-49 -190.5q167 82 242 231zM25 291q69 118 92.5 217t-11.5 119t-108.5 -49.5 t-142.5 -188.5q-69 -118 -92.5 -216.5t10.5 -117.5q35 -22 109 47.5t143 188.5z" />
<glyph unicode="p" horiz-adv-x="557" d="M-446 385q81 138 191 203q101 60 163 22q77 -47 42 -223q-8 -41 -22 -88q-28 -92 -74 -160t-96.5 -103t-106 -55.5t-105 -22.5t-89 0.5t-63.5 8.5l-23 6l-227 -495h-131l579 1251h134zM-135 373q21 55 22 102.5t-14 67.5q-13 20 -36 22t-56 -18q-65 -43 -129 -113 t-108.5 -139t-79.5 -131.5t-52 -101.5l-18 -39q81 -17 160 10.5t138.5 84.5t103.5 122.5t69 132.5z" />
<glyph unicode="q" horiz-adv-x="761" d="M557 379h25l-236 -418q-119 -199 -210 -313.5t-145.5 -139t-88.5 8.5q-33 37 -28 94.5t42 130.5v2l295 518q-121 -135 -225 -176q-60 -19 -111.5 -2.5t-83.5 66t-24 108.5q2 2 2 4q19 118 97.5 220t182.5 175q119 83 258 86q39 0 60 -6q70 -19 102 -84q26 -48 23 -110 l-3 -4q-4 11 -9 19.5t-8 11.5l-3 3q-41 59 -99.5 76t-112 -0.5t-101 -44t-76.5 -51.5l-29 -25q-109 -88 -151 -191.5t-13 -164.5q12 -26 38.5 -36t56.5 -1q45 13 83 35t75 57.5t63.5 66t71.5 85t77 90.5h129q-73 -99 -216 -328t-245 -415l-55 -97q-16 -29 -24 -53 q-7 -18 -7 -25q0 -17 11 -24.5t28 -1.5q17 8 23 14q138 134 319 422q197 334 242 418z" />
<glyph unicode="r" horiz-adv-x="514" d="M551 492h35q-90 -132 -166 -228.5t-134.5 -156t-105 -88t-78.5 -27.5t-53 28q-34 37 -22.5 99t48.5 129t95 137q80 99 106 150q7 11 1 21.5t-23 6.5q-16 -3 -31 -12q-37 -19 -65 -21q-46 -5 -58 23l-82 -137h-28q158 268 178 303h76q-45 -102 -45 -109q0 -12 12 -12 q2 0 27.5 12.5t54.5 26t39 16.5q25 4 37 0q83 -23 -25 -198q-25 -42 -67 -103.5t-91 -131.5t-55 -79q-20 -27 -31 -51q-8 -19 -8 -31q-2 -21 9.5 -30.5t31.5 -3.5q19 8 27 14q104 89 213 221t178 232z" />
<glyph unicode="s" horiz-adv-x="487" d="M281 473h36q-4 -6 -11.5 -16t-36 -41t-62.5 -62t-92.5 -74.5t-124.5 -82.5q-5 -10 -15 -26.5t-40.5 -56t-62.5 -67.5t-78.5 -44.5t-90.5 -2.5q-56 17 -77 56.5t-11 81.5t34.5 78.5t53.5 51.5q6 -5 16.5 -14t48.5 -26.5t82 -24.5q17 31 32 68t27.5 87.5t1.5 95.5t-48 70 l-68 -78h-24q7 10 19 27.5t45.5 63t62.5 82t60.5 69.5t49.5 41q34 13 36 -16q3 -43 -54 -109t-19 -155q20 -43 25.5 -95.5t1.5 -83.5l-4 -32q4 0 12.5 1t36.5 13.5t59 34.5t80 70.5t99 115.5zM-162 180q-34 8 -69 19t-53 19l-19 7q-53 -61 -57 -116q-3 -41 32.5 -60.5 t69.5 2.5q20 13 39.5 35t28.5 38l10 15z" />
<glyph unicode="t" horiz-adv-x="321" d="M295 750h-211q-444 -658 -422 -727q18 -56 176 100q140 139 266 311q25 34 43 62h41q-6 -9 -16.5 -24.5t-43.5 -61t-66.5 -88.5t-81 -98t-91 -99t-92 -82t-88.5 -55q-31 -12 -60.5 0t-41.5 43q-19 56 10 131q40 108 346 588h-180l24 38h181l159 250h134 q-74 -107 -172 -250h217z" />
<glyph unicode="u" horiz-adv-x="577" d="M158 66q102 87 262 335h41q-303 -486 -414 -362q-37 34 -27 102q-33 -38 -68.5 -68.5t-75.5 -52.5t-75 -15t-55 48q-68 135 170 590h141q-41 -36 -95.5 -114t-97.5 -164.5t-59 -161.5t19 -105q26 -20 63 -2q52 26 114 100.5t118.5 172t88 157.5t58.5 117h125 q-9 -12 -25 -33.5t-59.5 -85.5t-80 -125.5t-75.5 -141t-59 -144.5q-2 -8 -3.5 -17.5t-1 -23t9 -21t24.5 -4.5q2 0 20 6q9 9 17 13z" />
<glyph unicode="v" horiz-adv-x="501" d="M246 381q47 52 123 149h22q-59 -74 -108 -137q-69 -89 -170 -86l-25 2q-7 -10 -19.5 -27.5t-50.5 -64t-75 -84.5t-86 -75.5t-90 -51.5q-31 -12 -62 0.5t-43 42.5q-28 73 43.5 228t218.5 362h113q-12 -17 -32 -46.5t-73 -110t-95 -148.5t-80 -141.5t-46 -110.5 q-6 -42 33 -42q56 -2 141 77q65 60 123 149q47 71 53 160q8 95 84 188q61 67 83 32q19 -30 -6 -99q-8 -23 -19 -43q-21 -38 -45.5 -72.5t-34 -51.5t-10.5 -36q6 -3 18 -6.5t46.5 5t68.5 38.5z" />
<glyph unicode="w" horiz-adv-x="737" d="M432 651h72q-10 -30 -12 -36.5t-20.5 -59.5t-31 -82.5t-38 -88.5t-47 -98t-52.5 -90t-60 -83.5t-64 -61t-70 -39.5q-66 -20 -104 -8t-54.5 45.5t-20.5 69t-1 63.5l3 27q-2 -3 -6 -8.5t-17.5 -22.5t-27 -32.5t-33 -36t-38.5 -37t-41 -31.5t-42.5 -23t-41 -8t-37.5 10 q-77 49 -29.5 233.5t186.5 397.5h132q-35 -54 -70 -110.5t-88.5 -151.5t-83 -173.5t-21.5 -117.5q11 -57 77 -13q84 55 187 221q98 157 166 345h158q-5 -4 -14 -13t-36 -44.5t-54.5 -80t-65.5 -125t-72 -175.5q-41 -119 1 -162q35 -35 101 7q93 60 169 223q43 96 78 188.5 t49 136.5z" />
<glyph unicode="x" horiz-adv-x="722" d="M522 604q4 -44 -42 -61q-37 -13 -60 3q-8 6 -8 15q0 19 -6 31q-14 23 -41 16q-56 -17 -113 -77.5t-97.5 -133.5t-67.5 -137t-36 -102q-7 -35 -4 -52q2 -25 17.5 -35.5t44.5 -0.5q72 28 146.5 92t113.5 114l39 50h32q-54 -91 -133 -161.5t-147 -113.5q-43 -22 -72 -24 q-42 -3 -71 18t-40.5 52.5t-17.5 63.5t-5 55l1 22q-48 -69 -115 -123t-116 -74q-91 -30 -134 26q-25 34 -15 67q4 14 15 18q32 13 55.5 0.5t22.5 -46.5q0 -22 14 -30.5t28 -5.5l14 2q53 8 131 89.5t149 207.5q49 87 63.5 156t-4.5 96q-23 42 -108.5 -22t-159.5 -149l-74 -85 l-49 -62h-37l48 62q93 130 235 249q53 39 88 52q56 16 88.5 2t46 -49.5t16.5 -72.5t0 -65l-3 -28q121 191 245 215q69 14 106 -27q16 -17 17 -37z" />
<glyph unicode="y" horiz-adv-x="583" d="M86 573h47l-133 -186q-131 -150 -178 -195q-119 -117 -275 -194q-34 -67 -60.5 -113.5t-71 -114t-101 -129t-123.5 -114.5q-125 -100 -220 -74q-61 16 -79 77q-21 76 39 154q11 15 25 29q22 22 43 41.5t47 38t43 31t49.5 30t47.5 26t55.5 27t54 24.5t64 28t65.5 29 l108 180q-191 -191 -274 -92q-19 25 -17.5 64t18.5 85t37 85.5t36 65.5l16 27l145 250h152q-13 -20 -33 -53q-55 -90 -172 -248q-45 -61 -79 -120t-45 -88l-11 -29q-7 -24 4.5 -37.5t40.5 -3.5q27 12 78 47q135 103 231 260l96 164l66 108h133q-274 -411 -350 -542 q-17 -34 -27 -50q87 41 171 109t142 135.5t104 129t69 99.5zM-625 -117q21 42 25 54q-3 -1 -12.5 -5.5t-12.5 -5.5q-202 -72 -339 -207q-100 -99 -106 -171q-4 -57 56 -66q51 1 105 34.5t101 88t80.5 101.5t63.5 99q21 37 39 78z" />
<glyph unicode="z" horiz-adv-x="452" d="M-645 37q66 28 141.5 90t143 139t114 136t86.5 116h45q-92 -131 -237 -287q-64 -69 -135 -126t-109 -79l-39 -22q-1 -10 -3 -43t-3.5 -46.5t-5.5 -45t-10.5 -49.5t-16.5 -48.5t-25 -54t-34.5 -53t-47 -58.5t-61.5 -59q-128 -95 -234 -117t-154.5 30.5t-22.5 160.5 q20 63 81.5 125.5t136 106.5t145.5 79t119 52l48 18q13 26 14 49t-5 33l-5 10q-90 -18 -131.5 -12.5t-47.5 21.5l-7 16q21 56 133 37q57 -6 96 30q81 75 141.5 205t38.5 172q-9 18 -31 18t-47 -13t-49 -28t-39 -28l-16 -12q2 4 5.5 10.5t18.5 26t32.5 38.5t48.5 43t67 44 q32 18 64 12q40 -6 59 -41t19 -67l-1 -31q-13 -75 -50 -143.5t-81.5 -113t-86.5 -78t-71 -48.5l-28 -15q-3 -28 6.5 -53t19.5 -36zM-1143 -547q42 -2 98.5 33t113.5 95.5t107 155.5t74 202q-15 -6 -41 -18t-95.5 -50.5t-127 -78t-116 -98.5t-82.5 -116q-2 -5 -4 -13t-3 -29 t4 -37.5t23 -30.5t49 -15z" />
<glyph unicode="{" d="M1124 -242h-108q-108 0 -185 68t-77 141v467q0 66 -52 133q-54 66 -223 72v59q168 3 223 70q52 67 52 133v469q0 73 77 141t185 68h108v-49h-90q-63 0 -108 -33.5t-45 -91.5v-502q0 -81 -62 -158q-60 -75 -143 -75v-2q82 -3 143 -76q62 -77 62 -160v-500q0 -58 45 -91.5 t108 -33.5h90v-49z" />
<glyph unicode="|" d="M1014 -418h-162v1995h162v-1995z" />
<glyph unicode="}" d="M367 -242h-109v49h90q63 0 109 33.5t47 91.5l-2 500q0 84 61 160q61 73 144 76v2q-84 0 -144 75q-59 73 -59 158v502q-1 58 -47 91.5t-109 33.5h-90v49h109q106 0 186 -68q76 -67 76 -141v-469q0 -67 51 -133q55 -67 223 -70v-59q-169 -6 -223 -72q-51 -66 -51 -133v-467 q0 -72 -78 -141q-77 -68 -184 -68z" />
<glyph unicode="~" d="M188 555v158q70 76 123 98q66 27 115 27q62 0 180 -50q114 -51 172 -51q49 0 109 29q56 26 131 113v-156q-65 -74 -123 -98q-66 -27 -117 -27q-60 0 -176 49t-176 49q-48 0 -109 -28q-55 -27 -129 -113z" />
<glyph unicode="&#xa1;" horiz-adv-x="1376" />
<glyph unicode="&#xa2;" horiz-adv-x="2332" />
<glyph unicode="&#xa3;" d="M909 0h-719v49q187 239 187 420q0 79 -33 141q-23 44 -31 64h-161v59h135q-58 140 -58 252q0 225 123 348q124 121 312 121q80 0 184 -14q110 -12 110 -33v-162h-57q-6 60 -78 103q-73 30 -161 30q-99 0 -191 -100q-84 -96 -84 -242l2 -30q0 -141 53 -273h359v-59h-334 q21 -42 33 -62q35 -62 35 -137q0 -160 -162 -375h401q131 0 189 131h49z" />
<glyph unicode="&#xa4;" d="M631 496q74 0 132.5 44.5t80.5 118.5q8 24 8 58q0 42 -18 84.5t-48 72.5q-67 64 -157 64q-42 0 -85 -18t-71 -46q-28 -30 -46.5 -73.5t-18.5 -83.5q0 -43 18 -86t47 -72q63 -63 158 -63zM934 332l-119 119q-82 -62 -184 -62t-189 62l-116 -119l-80 82l116 116 q-59 86 -59 187q0 105 59 186l-116 119l80 80l116 -119q89 61 189 61q101 0 184 -61l119 119l80 -80l-117 -119q59 -85 59 -186q0 -99 -59 -187l117 -116z" />
<glyph unicode="&#xa5;" horiz-adv-x="1261" d="M862 -12l-6 1q-7 1 -17.5 2t-23 2t-27 2t-26.5 1q-74 0 -209.5 -4t-140.5 -4q-31 0 -40.5 4t-9.5 16t9.5 18.5t36.5 12.5l24 4q66 15 87.5 30t29.5 50q6 35 6 102l-2 242q0 38 -6 68h-484q-28 0 -28 26q0 25 28 25h467l-120 172h-344q-17 0 -24 5.5t-7 18.5q0 25 28 25 h308q-59 80 -109 156q-132 196 -227 196q-6 0 -12.5 5.5t-6.5 11.5q0 36 43 36q11 0 122 -8t165 -8h88q32 0 40.5 -6t8.5 -27q0 -8 -15.5 -14t-37.5 -6q-4 0 -18.5 2t-18.5 2q-51 0 -51 -35q0 -37 64 -129l157 -221q25 -37 33 -53q40 -70 72 -70q16 0 30 20l277 396 q18 29 18 51q0 19 -10.5 27.5t-36.5 13.5l-41 4q-47 3 -47 25q0 30 33 30q2 0 49 -4t74 -4h139h26t27.5 0.5t23.5 1t18 0.5h7q24 0 27 -16q0 -30 -37 -33l-28 -6q-64 -16 -146 -117l-182 -221h323q14 0 23.5 -6.5t9.5 -16.5q0 -15 -6.5 -20.5t-21.5 -5.5h-367 q-28 -35 -64.5 -77t-60.5 -67.5t-25 -27.5h512q33 0 33 -23q0 -28 -28 -28h-531l-2 -60l2 -215q0 -110 5.5 -148t21.5 -46q32 -16 106 -19q78 -3 78 -31q0 -12 -10 -20t-25 -8z" />
<glyph unicode="&#xa6;" d="M1014 -418h-162v789h162v-789zM1014 788h-162v791h162v-791z" />
<glyph unicode="&#xa7;" d="M715 322q77 22 123.5 81t46.5 138v10h-2q-1 4 -2 13.5t-2 13.5q-19 55 -113 127q-64 28 -127 28q-78 0 -125 -45t-47 -117q0 -124 248 -249zM637 -416h-14q-64 0 -166 17q-97 15 -97 41v194h52q3 -80 80 -133q67 -43 145 -49q112 6 184 68.5t72 164.5q0 128 -315 277 q-121 63 -175.5 135.5t-54.5 177.5q0 134 70 217.5t190 102.5l-41 18q-120 64 -173.5 136.5t-53.5 178.5q0 144 82.5 230t222.5 92q8 2 21 2q60 0 161 -16q99 -15 99 -41v-195h-52q-6 82 -79 131q-73 51 -164 51q-79 0 -125.5 -43.5t-46.5 -117.5q0 -136 286 -269 q152 -70 205 -143q56 -77 56 -188q0 -169 -103 -281q-51 -45 -98 -66q107 -55 153 -116q56 -77 56 -189q0 -169 -101 -282q-126 -102 -276 -105z" />
<glyph unicode="&#xa8;" horiz-adv-x="1024" d="M528 1143q-14 0 -24 10l-78 86q-8 16 -8 25q0 13 14 24l72 74q13 10 24 10q12 0 27 -12l70 -74q10 -17 10 -24q0 -15 -12 -27l-70 -76q-16 -16 -25 -16zM893 1143q-15 0 -25 10l-75 88q-11 15 -11 23q0 9 15 24l71 74q13 10 25 10t27 -12l69 -74q10 -17 10 -24 q0 -15 -12 -27l-69 -76q-13 -16 -25 -16z" />
<glyph unicode="&#xa9;" horiz-adv-x="1675" d="M934 -18q-299 0 -516 217q-107 104 -162 238t-55 282q0 225 124.5 410.5t327.5 269.5q134 57 287 57q221 0 406.5 -124.5t271.5 -330.5q57 -142 57 -282q0 -145 -56 -280.5t-163 -241.5q-107 -107 -241.5 -161t-280.5 -54zM934 43q147 0 275.5 57t216 150.5t138 216 t50.5 252.5q0 136 -53 261t-144 216q-97 98 -221 149.5t-256 51.5q-135 0 -260.5 -51.5t-222.5 -149.5q-93 -94 -145 -217t-52 -260q0 -143 56.5 -270.5t149.5 -215.5t215.5 -139t252.5 -51zM965 223q-139 0 -261.5 67t-187.5 185q-65 121 -65 244q0 83 27.5 162.5t86 150 t140.5 115.5q122 67 253 67q75 0 152 -26l8 -2q18 0 27 31h41l71 -199h-43q-53 96 -131 125q-71 24 -161 24q-90 -8 -169.5 -70.5t-119.5 -176.5q-33 -97 -33 -185q0 -135 61 -253t160 -173q66 -38 166 -41q124 0 195 56q69 54 69 127h54v-101q0 -44 -97 -86 q-93 -41 -243 -41z" />
<glyph unicode="&#xaa;" horiz-adv-x="1327" />
<glyph unicode="&#xab;" horiz-adv-x="944" d="M705 176h-15l-342 303l342 303h15v-37l-205 -266l205 -266v-37zM1018 176h-14l-342 303l342 303h14v-37l-205 -266l205 -266v-37z" />
<glyph unicode="&#xac;" d="M1012 274h-99v394h-741v100h842v-492z" />
<glyph unicode="&#xad;" horiz-adv-x="671" d="M631 410h-359q-39 0 -39 26v84q0 29 41 29h355q43 0 43 -29v-84q0 -26 -41 -26z" />
<glyph unicode="&#xae;" horiz-adv-x="1675" d="M973 614q32 3 62 38.5t46 97.5q13 54 13 104q0 73 -24.5 139.5t-61.5 87.5q-32 19 -64 19h-92v-375q41 -111 121 -111zM1350 268h-346v51h45q30 0 30 23q0 29 -69 113l-74 102q-43 0 -84 41v-158q0 -121 35 -121h53v-51h-315v51h43q37 0 37 121v539q0 121 -37 121h-43v69 h356q66 -2 125 -42.5t92 -112.5q33 -81 33 -154q0 -79 -33 -149q-29 -72 -115 -136l84 -114q100 -142 150 -142h33v-51zM934 -18q-299 0 -516 217q-107 104 -162 238t-55 282q0 225 124.5 410.5t327.5 269.5q134 57 287 57q221 0 406.5 -124.5t271.5 -330.5q57 -142 57 -282 q0 -145 -56 -280.5t-163 -241.5q-107 -107 -241.5 -161t-280.5 -54zM934 43q147 0 275.5 57t216 150.5t138 216t50.5 252.5q0 136 -53 261t-144 216q-97 98 -221 149.5t-256 51.5q-135 0 -260.5 -51.5t-222.5 -149.5q-93 -94 -145 -217t-52 -260q0 -143 56.5 -270.5 t149.5 -215.5t215.5 -139t252.5 -51z" />
<glyph unicode="&#xaf;" horiz-adv-x="1372" />
<glyph unicode="&#xb0;" horiz-adv-x="673" d="M399 956q87 0 147 60t60 147q0 88 -60.5 148.5t-146.5 60.5q-87 0 -149 -61t-62 -148q0 -89 61 -148t150 -59zM397 887q-118 0 -198 80q-80 83 -80 196q0 114 82 199q83 80 198 80q116 0 195 -82q82 -79 82 -197q0 -112 -82 -194t-197 -82z" />
<glyph unicode="&#xb1;" horiz-adv-x="2076" />
<glyph unicode="&#xb2;" horiz-adv-x="2076" />
<glyph unicode="&#xb3;" horiz-adv-x="2076" />
<glyph unicode="&#xb4;" horiz-adv-x="1024" d="M700 1077h-69l291 297q60 60 96 60q33 0 53.5 -20t20.5 -50q0 -40 -62 -84z" />
<glyph unicode="&#xb5;" horiz-adv-x="2416" />
<glyph unicode="&#xb6;" horiz-adv-x="1024" d="M895 0h-82v1366h-166v-1366h-86v737q-174 9 -275.5 103.5t-101.5 244.5q0 158 107.5 254.5t286.5 96.5h444v-70h-127v-1366z" />
<glyph unicode="&#xb7;" horiz-adv-x="507" d="M385 567q-14 0 -29 15l-88 100q-10 17 -10 27q0 14 16 30l82 84q15 15 29 15t31 -17l80 -86q12 -15 12 -28q0 -17 -14 -31l-80 -88q-21 -21 -29 -21z" />
<glyph unicode="&#xb8;" horiz-adv-x="1024" d="M909 -418q-112 0 -188 33v94q80 -51 151 -51q63 0 93 21t30 67q0 80 -151 80q-21 0 -33 -2l47 176h64l-37 -104q9 2 19 3t22.5 1.5t19.5 1.5q85 0 133.5 -40.5t48.5 -115.5t-58.5 -119.5t-160.5 -44.5z" />
<glyph unicode="&#xb9;" horiz-adv-x="2076" />
<glyph unicode="&#xba;" horiz-adv-x="1470" />
<glyph unicode="&#xbb;" horiz-adv-x="944" d="M215 176h-14v37l205 266l-205 266v37h14l342 -303zM528 176h-14v37l205 266l-205 266v37h14l342 -303z" />
<glyph unicode="&#xbc;" horiz-adv-x="3497" />
<glyph unicode="&#xbd;" horiz-adv-x="4022" />
<glyph unicode="&#xbe;" horiz-adv-x="3497" />
<glyph unicode="&#xbf;" horiz-adv-x="1531" />
<glyph unicode="&#xc0;" horiz-adv-x="3153" />
<glyph unicode="&#xc1;" horiz-adv-x="3153" />
<glyph unicode="&#xc2;" horiz-adv-x="3153" />
<glyph unicode="&#xc3;" horiz-adv-x="3153" />
<glyph unicode="&#xc4;" horiz-adv-x="3153" />
<glyph unicode="&#xc5;" horiz-adv-x="3153" />
<glyph unicode="&#xc6;" horiz-adv-x="4337" />
<glyph unicode="&#xc7;" horiz-adv-x="2865" />
<glyph unicode="&#xc8;" horiz-adv-x="2357" />
<glyph unicode="&#xc9;" horiz-adv-x="2357" />
<glyph unicode="&#xca;" horiz-adv-x="2357" />
<glyph unicode="&#xcb;" horiz-adv-x="2357" />
<glyph unicode="&#xcc;" horiz-adv-x="1345" />
<glyph unicode="&#xcd;" horiz-adv-x="1345" />
<glyph unicode="&#xce;" horiz-adv-x="1345" />
<glyph unicode="&#xcf;" horiz-adv-x="1345" />
<glyph unicode="&#xd0;" horiz-adv-x="3108" />
<glyph unicode="&#xd1;" horiz-adv-x="3182" />
<glyph unicode="&#xd2;" horiz-adv-x="3305" />
<glyph unicode="&#xd3;" horiz-adv-x="3305" />
<glyph unicode="&#xd4;" horiz-adv-x="3305" />
<glyph unicode="&#xd5;" horiz-adv-x="3305" />
<glyph unicode="&#xd6;" horiz-adv-x="3305" />
<glyph unicode="&#xd7;" horiz-adv-x="1015" d="M915 371l-245 247l-248 -247l-98 98l245 248l-245 248l98 98l248 -248l248 248l98 -98l-248 -248l248 -248z" />
<glyph unicode="&#xd8;" horiz-adv-x="3305" />
<glyph unicode="&#xd9;" horiz-adv-x="3074" />
<glyph unicode="&#xda;" horiz-adv-x="3074" />
<glyph unicode="&#xdb;" horiz-adv-x="3074" />
<glyph unicode="&#xdc;" horiz-adv-x="3074" />
<glyph unicode="&#xdd;" horiz-adv-x="2525" />
<glyph unicode="&#xde;" horiz-adv-x="2293" />
<glyph unicode="&#xdf;" horiz-adv-x="2562" />
<glyph unicode="&#xe0;" horiz-adv-x="1888" />
<glyph unicode="&#xe1;" horiz-adv-x="1888" />
<glyph unicode="&#xe2;" horiz-adv-x="1888" />
<glyph unicode="&#xe3;" horiz-adv-x="1888" />
<glyph unicode="&#xe4;" horiz-adv-x="1888" />
<glyph unicode="&#xe5;" horiz-adv-x="1888" />
<glyph unicode="&#xe6;" horiz-adv-x="2977" />
<glyph unicode="&#xe7;" horiz-adv-x="1853" />
<glyph unicode="&#xe8;" horiz-adv-x="1861" />
<glyph unicode="&#xe9;" horiz-adv-x="1861" />
<glyph unicode="&#xea;" horiz-adv-x="1861" />
<glyph unicode="&#xeb;" horiz-adv-x="1861" />
<glyph unicode="&#xec;" horiz-adv-x="1052" />
<glyph unicode="&#xed;" horiz-adv-x="1052" />
<glyph unicode="&#xee;" horiz-adv-x="1052" />
<glyph unicode="&#xef;" horiz-adv-x="1052" />
<glyph unicode="&#xf0;" horiz-adv-x="2332" />
<glyph unicode="&#xf1;" horiz-adv-x="2269" />
<glyph unicode="&#xf2;" horiz-adv-x="2068" />
<glyph unicode="&#xf3;" horiz-adv-x="2068" />
<glyph unicode="&#xf4;" horiz-adv-x="2068" />
<glyph unicode="&#xf5;" horiz-adv-x="2068" />
<glyph unicode="&#xf6;" horiz-adv-x="2068" />
<glyph unicode="&#xf7;" d="M1014 647h-842v139h840h2v-139zM596 236q-14 0 -31 14l-88 100q-8 13 -8 27q0 17 14 31l82 84q14 14 31 14q11 0 31 -17l80 -86q12 -15 12 -28q0 -14 -14 -31l-80 -88q-20 -20 -29 -20zM596 930q-16 0 -31 12l-88 102q-8 11 -8 25q0 16 14 33l82 84q15 12 31 12 q14 0 31 -14l80 -86q12 -18 12 -31q0 -10 -14 -31l-80 -88q-21 -18 -29 -18z" />
<glyph unicode="&#xf8;" horiz-adv-x="2068" />
<glyph unicode="&#xf9;" horiz-adv-x="2168" />
<glyph unicode="&#xfa;" horiz-adv-x="2168" />
<glyph unicode="&#xfb;" horiz-adv-x="2168" />
<glyph unicode="&#xfc;" horiz-adv-x="2168" />
<glyph unicode="&#xfd;" horiz-adv-x="1777" />
<glyph unicode="&#xfe;" horiz-adv-x="2068" />
<glyph unicode="&#xff;" horiz-adv-x="1777" />
<glyph unicode="&#x2c6;" horiz-adv-x="1024" d="M1024 1079h-57l-234 215l-233 -215h-58l232 355h119z" />
<glyph unicode="&#x2dc;" horiz-adv-x="1024" d="M522 1133h-55q40 210 197 210q57 -4 114 -24q68 -23 115 -23q37 0 58.5 20.5t35.5 65.5h55q-21 -106 -70.5 -155t-129.5 -49q-54 0 -113 22q-67 25 -113 25q-41 0 -62 -21t-32 -71z" />
<glyph unicode="&#x2000;" horiz-adv-x="879" />
<glyph unicode="&#x2001;" horiz-adv-x="1759" />
<glyph unicode="&#x2002;" horiz-adv-x="879" />
<glyph unicode="&#x2003;" horiz-adv-x="1759" />
<glyph unicode="&#x2004;" horiz-adv-x="586" />
<glyph unicode="&#x2005;" horiz-adv-x="439" />
<glyph unicode="&#x2006;" horiz-adv-x="293" />
<glyph unicode="&#x2007;" horiz-adv-x="293" />
<glyph unicode="&#x2008;" horiz-adv-x="219" />
<glyph unicode="&#x2009;" horiz-adv-x="351" />
<glyph unicode="&#x200a;" horiz-adv-x="97" />
<glyph unicode="&#x2010;" horiz-adv-x="671" d="M631 410h-359q-39 0 -39 26v84q0 29 41 29h355q43 0 43 -29v-84q0 -26 -41 -26z" />
<glyph unicode="&#x2011;" horiz-adv-x="671" d="M631 410h-359q-39 0 -39 26v84q0 29 41 29h355q43 0 43 -29v-84q0 -26 -41 -26z" />
<glyph unicode="&#x2012;" horiz-adv-x="671" d="M631 410h-359q-39 0 -39 26v84q0 29 41 29h355q43 0 43 -29v-84q0 -26 -41 -26z" />
<glyph unicode="&#x2013;" horiz-adv-x="1107" d="M1108 420h-997v119h997v-119z" />
<glyph unicode="&#x2014;" horiz-adv-x="2048" d="M2048 420h-2048v119h2048v-119z" />
<glyph unicode="&#x2018;" horiz-adv-x="557" d="M506 1016q-44 0 -88 65q-45 62 -45 152q0 110 69 227q74 117 140 117v-43q-74 -46 -86 -191q0 -119 129 -159v-43z" />
<glyph unicode="&#x2019;" horiz-adv-x="557" d="M453 1382q0 -17 -9 -32q-8 -17 -16 -27q-14 -18 -47 -51q-20 -16 -33 -29q-90 -90 -196 -115v35q4 0 10.5 1.5t27 9.5t41 19.5t50 35.5t55.5 55q-41 6 -66 40t-18 77q5 29 27 52.5t51 29.5q49 9 87 -22t36 -79z" />
<glyph unicode="&#x201a;" horiz-adv-x="557" d="M281 -281v43q74 46 86 191q0 119 -129 162v41l118 125q45 0 88 -66q45 -62 45 -152q0 -112 -71 -225q-70 -119 -137 -119z" />
<glyph unicode="&#x201c;" horiz-adv-x="909" d="M506 1016q-44 0 -88 65q-45 62 -45 152q0 110 69 227q74 117 140 117v-43q-74 -46 -86 -191q0 -119 129 -159v-43zM858 1016q-44 0 -88 65q-45 62 -45 152q0 104 72 227q71 117 139 117v-43q-73 -43 -88 -191q0 -119 129 -159v-43z" />
<glyph unicode="&#x201d;" horiz-adv-x="911" d="M449 1477q0 -11 -9 -33q-9 -18 -18 -27q-15 -23 -45 -49q-5 -5 -15.5 -14.5t-15.5 -14.5q-86 -86 -194 -112v35q4 0 10.5 1.5t26.5 8.5t40 18t48.5 34t54.5 54q-39 6 -63.5 40t-18.5 75q6 31 27.5 53.5t50.5 28.5q49 9 85 -21t36 -77zM700 1466q0 -12 -8 -32 q-9 -18 -18 -27q-15 -23 -45 -49l-31 -31q-86 -82 -195 -113v35q4 0 10.5 1.5t26.5 9t40.5 19t49 35t54.5 54.5q-39 6 -63.5 39.5t-18.5 75.5q4 29 26.5 51.5t51.5 28.5q47 10 83.5 -20.5t36.5 -76.5z" />
<glyph unicode="&#x201e;" horiz-adv-x="911" d="M281 -281v43q74 46 86 191q0 119 -129 162v41l118 125q45 0 88 -66q45 -62 45 -152q0 -112 -71 -225q-70 -119 -137 -119zM633 -281v43q74 44 86 191q0 119 -129 162v41l121 125q43 0 88 -66q45 -67 45 -152q0 -106 -72 -225q-70 -119 -139 -119z" />
<glyph unicode="&#x2022;" horiz-adv-x="1024" d="M1026 567q0 40 -28.5 69.5t-67.5 29.5t-67.5 -29.5t-28.5 -69.5t28 -68t68 -28t68 28t28 68z" />
<glyph unicode="&#x2026;" horiz-adv-x="2048" d="M385 -4q-17 0 -29 12l-88 103q-10 13 -10 24q0 14 16 33l82 84q15 12 29 12t31 -14l80 -86q12 -18 12 -31q0 -14 -14 -31l-80 -88q-18 -18 -29 -18zM1067 -4q-14 0 -29 12l-88 103q-10 13 -10 24q0 14 16 33l82 84q15 12 29 12q16 0 33 -14l80 -86q12 -18 12 -31 q0 -10 -14 -31l-80 -88q-21 -18 -31 -18zM1751 -4q-17 0 -29 12l-88 103q-10 13 -10 24q0 14 16 33l82 84q15 12 29 12t31 -14l80 -86q12 -18 12 -31q0 -14 -14 -31l-80 -88q-18 -18 -29 -18z" />
<glyph unicode="&#x202f;" horiz-adv-x="351" />
<glyph unicode="&#x2039;" horiz-adv-x="630" d="M705 176h-15l-342 303l342 303h15v-37l-205 -266l205 -266v-37z" />
<glyph unicode="&#x203a;" horiz-adv-x="630" d="M215 176h-14v37l205 266l-205 266v37h14l342 -303z" />
<glyph unicode="&#x205f;" horiz-adv-x="439" />
<glyph unicode="&#x20ac;" d="M645 0q-181 0 -325 98.5t-224 274.5q-61 134 -76 280h-106l16 60h86v28l2 31h-71l16 62h60q12 141 75 280q77 172 226 275q146 96 299 96q28 0 86 -8q50 -15 82 -29q9 -6 16 -6q20 0 35 45h41l84 -283h-41q-48 131 -138 178q-50 24 -81 31v4q-56 17 -101 17 q-132 0 -247.5 -103t-170.5 -287q-29 -101 -38 -210h706l-16 -62h-693q0 -29 3 -59h673l-16 -60h-653q20 -170 91 -314.5t185 -219.5q101 -67 215 -70q188 3 256 92q76 88 76 185h47v-144q0 -68 -111 -127q-104 -52 -268 -55z" />
<glyph unicode="&#x2122;" horiz-adv-x="3065" />
<glyph unicode="&#x25fc;" horiz-adv-x="675" d="M0 676h676v-676h-676v676z" />
</font>
</defs>
</svg>
